<?xml version="1.0" encoding="utf-8"?>
<!-- Generator: Adobe Illustrator 19.1.0, SVG Export Plug-In . SVG Version: 6.00 Build 0)  -->
<svg version="1.1" id="Layer_1" xmlns="http://www.w3.org/2000/svg" xmlns:xlink="http://www.w3.org/1999/xlink" x="0px" y="0px"
	 viewBox="-3442.5 1237.2 453.5 226.8" style="enable-background:new -3442.5 1237.2 453.5 226.8;" xml:space="preserve">
<style type="text/css">
	.st0{fill:#C72128;}
</style>
<g>
	<g id="text">
		<g>
			<path class="st0" d="M-3346.7,1369.9l10.7-20c2.1-3.8,3.6-7,5-9.7h7.7l-2.3,4.8h0.2c4.1-3.9,8.5-5.6,12.4-5.6c4.8,0,6.5,3,4.7,8
				c-0.5,1.4-1.5,3.6-2.3,5l-9.4,17.2h-8.8l8.9-16.2c0.6-1.1,1.1-2.3,1.5-3.3c0.8-2.1,0.5-3.5-1.7-3.5c-2.9,0-7.4,3.6-10.9,10.1
				l-7.1,13H-3346.7z"/>
			<path class="st0" d="M-3307.8,1369.9l12.4-23h-3.8l3.6-6.7h3.8l0.9-1.5c1.8-3.5,4.5-7.1,8.3-9.7c3-2.1,6.5-2.9,9.4-2.9
				c2.1,0,3.6,0.3,4.4,0.8l-3.9,7c-0.6-0.3-1.5-0.6-2.7-0.6c-2.7,0-5.4,2.4-7,5.4l-0.8,1.5h5.7l-3.6,6.7h-5.7l-12.4,23H-3307.8z"/>
			<path class="st0" d="M-3247.6,1351.9c-3.8,10.9-14.1,18.7-24.3,18.7c-7.6,0-10.7-4.8-8.2-12.2c3.6-10.3,13.8-18.7,24.2-18.7
				C-3247.9,1339.6-3245.2,1345.1-3247.6,1351.9z M-3271.1,1358.2c-1.2,3.5-0.3,5.7,2.7,5.7c4.8,0,9.8-7,11.6-12.1
				c0.9-2.7,0.9-5.6-2.7-5.6C-3264.3,1346.3-3269.4,1353.5-3271.1,1358.2z"/>
			<path class="st0" d="M-3247.6,1369.9l9.5-17.5c2.4-4.5,4.5-9.4,5.7-11.9h7.6c-0.9,2-1.8,3.9-2.7,6h0.2c3.5-3.9,7.7-6.7,11.8-6.7
				c0.6,0,1.1,0,1.7,0l-4.7,8.5c-0.5,0-0.9,0-1.4,0c-5.6,0-10,5-13,10.7l-5.9,11h-8.8V1369.9z"/>
			<path class="st0" d="M-3221.5,1369.9l10.7-20c2-3.8,3.6-7,4.8-9.7h7.6l-2.3,4.8h0.2c3.9-3.8,8.2-5.4,11.9-5.4c4.7,0,5.7,3,5,5.6
				c3.9-3.8,8.3-5.6,12.1-5.6c4.5,0,6.2,2.9,4.5,7.9c-0.5,1.2-1.5,3.6-2.3,5.1l-9.2,17.2h-8.5l8.6-16.2c0.6-1.2,1.4-2.4,1.7-3.6
				c0.8-2.1,0.3-3.5-1.7-3.5c-2.9,0-7.1,3.9-10.4,9.8l-7.3,13.5h-8.5l8.8-16.3c0.6-1.2,1.2-2.4,1.7-3.3c0.8-2,0.6-3.6-1.5-3.6
				c-3,0-7.6,4.2-10.6,10l-7.1,13.3C-3213.2,1369.9-3221.5,1369.9-3221.5,1369.9z"/>
			<path class="st0" d="M-3148.2,1369.9c0.6-1.8,1.5-3.8,2.4-5.9h-0.2c-4.4,4.8-8.8,6.5-12.2,6.5c-5.3,0-7.6-4.1-5.3-10.3
				c3.5-10,13.9-20.6,28.4-20.6c3.5,0,7.1,0.6,9.2,1.5l-8.6,15.4c-2.1,3.8-4.7,9.7-5.9,13.3H-3148.2z M-3137.4,1346.4
				c-0.6-0.2-1.4-0.3-2.3-0.3c-5.6,0-12.1,7-14.1,12.4c-1.1,2.9-0.6,4.8,1.8,4.8c2.6,0,6.8-3,10.7-10.3L-3137.4,1346.4z"/>
			<path class="st0" d="M-3099.9,1332.1l-4.5,8.3h6.4l-3.6,6.7h-6.4l-5.6,10c-0.6,1.2-1.5,2.7-1.8,3.8c-0.5,1.5-0.3,2.4,1.7,2.4
				c0.8,0,1.7,0,2.4-0.2l-3.5,6.8c-1.2,0.5-3.5,0.6-5.4,0.6c-5.1,0-6.8-2.7-5.4-6.4c0.6-1.7,1.4-3.3,2.6-5.4l6.5-11.8h-3.8l3.5-6.7
				h3.8l3.5-6.2L-3099.9,1332.1z"/>
			<path class="st0" d="M-3105.2,1369.9l16-29.6h8.8l-16,29.6H-3105.2z M-3085.3,1332.4c1.1-3,4.1-5,6.8-5c2.6,0,3.8,1.7,2.9,4.2
				c-1.1,3-4.1,4.8-6.8,4.8C-3084.9,1336.6-3086.2,1334.9-3085.3,1332.4z"/>
			<path class="st0" d="M-3047.9,1351.9c-3.8,10.9-14.1,18.7-24.3,18.7c-7.6,0-10.7-4.8-8.2-12.2c3.6-10.3,13.8-18.7,24.2-18.7
				C-3048.2,1339.6-3045.5,1345.1-3047.9,1351.9z M-3071.3,1358.2c-1.2,3.5-0.3,5.7,2.7,5.7c4.8,0,9.8-7,11.6-12.1
				c0.9-2.7,0.9-5.6-2.7-5.6C-3064.7,1346.3-3069.8,1353.5-3071.3,1358.2z"/>
			<path class="st0" d="M-3047.9,1369.9l10.7-20c2.1-3.8,3.6-7,5-9.7h7.7l-2.3,4.8h0.2c4.1-3.9,8.5-5.6,12.4-5.6c4.8,0,6.5,3,4.7,8
				c-0.5,1.4-1.5,3.6-2.3,5l-9.4,17.2h-8.8l8.9-16.3c0.6-1.1,1.1-2.3,1.5-3.3c0.8-2.1,0.5-3.5-1.7-3.5c-2.9,0-7.4,3.6-10.9,10.1
				l-7.1,13.2C-3039.1,1369.9-3047.9,1369.9-3047.9,1369.9z"/>
			<path class="st0" d="M-3334.9,1378l-8.3,14.7h0.2c2.7-2.3,6-3.6,9.2-3.6c5.4,0,6.2,4.4,4.7,8.9c-3,8.3-11.8,18-23.4,18
				c-6,0-8.3-2.6-6.7-7.3c0.6-1.5,1.4-3.2,2.3-4.7l14.4-26.2h7.7V1378z M-3349.7,1404.6c-0.5,0.9-0.9,1.8-1.2,2.9
				c-0.6,1.8,0.2,2.9,2,2.9c4.4,0,9.7-6,11.3-10.6c0.9-2.4,0.5-4.4-1.8-4.4c-2.7,0-6.4,2.7-8.9,7.3L-3349.7,1404.6z"/>
			<path class="st0" d="M-3330,1415.5l8.3-15.4c2.1-3.9,3.9-8.2,5-10.4h6.7c-0.8,1.8-1.5,3.5-2.3,5.3h0.2c3-3.5,6.8-5.9,10.3-5.9
				c0.5,0,0.9,0,1.4,0l-4.1,7.6c-0.3,0-0.8,0-1.2,0c-4.8,0-8.6,4.4-11.3,9.4l-5.1,9.7h-7.7V1415.5z"/>
			<path class="st0" d="M-3274.4,1399.8c-3.3,9.4-12.2,16.3-21.2,16.3c-6.5,0-9.4-4.2-7.1-10.6c3.2-8.9,11.9-16.3,21.2-16.3
				C-3274.7,1389.2-3272.4,1393.9-3274.4,1399.8z M-3294.8,1405.2c-1.1,3-0.3,5,2.4,5c4.2,0,8.6-6,10.1-10.4
				c0.9-2.4,0.8-4.8-2.3-4.8C-3289.1,1395-3293.5,1401.3-3294.8,1405.2z"/>
			<path class="st0" d="M-3274.4,1415.5l20.3-37.5h7.6l-12.1,22.4h0.2c1.2-1.1,2.3-2,3.3-3l9.4-7.9h9.4l-14.7,10.6l1.8,15.1h-8.5
				l-0.6-11l-3.8,2.7l-4.5,8.3h-7.7V1415.5z"/>
			<path class="st0" d="M-3222.4,1414c-3.5,1.5-7.4,2-10.3,2c-7.4,0-9.7-4.2-7.4-10.9c2.7-7.9,11.3-16,20.7-16c5.3,0,8,2.9,6.2,7.7
				c-2.3,6.7-9.5,8.9-19.8,8.8c-0.3,0.8-0.5,2-0.2,2.6c0.6,1.4,2,2,4.2,2c2.7,0,5.4-0.6,7.9-1.7L-3222.4,1414z M-3222.2,1394.7
				c-3.5,0-6.5,2.9-8,5.3c5.9,0,9.1-0.8,10-3.2C-3219.8,1395.6-3220.6,1394.7-3222.2,1394.7z"/>
			<path class="st0" d="M-3214.8,1415.5l8.3-15.4c2.1-3.9,3.9-8.2,5-10.4h6.7c-0.8,1.8-1.5,3.5-2.3,5.3h0.2c3-3.5,6.8-5.9,10.3-5.9
				c0.5,0,0.9,0,1.4,0l-4.1,7.4c-0.3,0-0.8,0-1.2,0c-4.8,0-8.6,4.4-11.3,9.4l-5.1,9.7H-3214.8z"/>
			<path class="st0" d="M-3188.7,1408.7c1.2,0.8,3.6,1.8,6,1.8c2.1,0,3.6-1.1,4.1-2.3s-0.2-2.1-2.1-3.3c-2.4-1.5-4.2-3.6-3-6.8
				c1.8-5.3,7.9-8.9,14.5-8.9c3,0,5.1,0.6,6.2,1.4l-3.6,5.4c-0.9-0.5-2.4-1.2-4.7-1.2c-2,0-3.6,0.9-4.2,2.3c-0.3,1.1,0.3,2,2.1,3
				c2.3,1.4,4.5,3.5,3.3,7.1c-2.1,5.9-8.2,9.1-15,9.1c-3.3,0-6-0.9-7.3-2L-3188.7,1408.7z"/>
		</g>
	</g>
	<g id="registered">
		<g>
			<path class="st0" d="M-3300,1302.4v-9.7h4.1c1.1,0,1.8,0.2,2.3,0.3c0.5,0.2,0.9,0.5,1.1,0.9s0.5,0.9,0.5,1.5
				c0,0.8-0.2,1.4-0.6,1.8s-1.1,0.8-2,0.9c0.5,0.3,0.8,0.5,1.1,0.8c0.3,0.3,0.6,0.8,1.1,1.5l1.2,2h-2.4l-1.4-2.1
				c-0.5-0.8-0.9-1.2-1.1-1.4c-0.2-0.2-0.5-0.3-0.6-0.5c-0.2,0-0.6-0.2-1.1-0.2h-0.5v4.1H-3300z M-3298,1296.8h1.5
				c0.9,0,1.5,0,1.8-0.2c0.3-0.2,0.5-0.2,0.6-0.5c0.2-0.3,0-0.5,0-0.6c0-0.3-0.2-0.6-0.3-0.8c-0.2-0.2-0.5-0.3-0.8-0.5
				c-0.2,0-0.6,0-1.4,0h-1.5V1296.8z"/>
		</g>
		<g>
			<path class="st0" d="M-3296.2,1308c-5.9,0-10.6-4.7-10.6-10.6s4.7-10.6,10.6-10.6c5.9,0,10.6,4.7,10.6,10.6
				S-3290.4,1308-3296.2,1308z M-3296.2,1288.4c-5,0-9.1,4.1-9.1,9.1s4.1,9.1,9.1,9.1c5,0,9.1-4.1,9.1-9.1
				S-3291.2,1288.4-3296.2,1288.4z"/>
		</g>
	</g>
	<g id="icon">
		<circle class="st0" cx="-3356.5" cy="1318.6" r="8.3"/>
		<path class="st0" d="M-3375.6,1336c0,0,11.5-2.7,14.1-3.3c2.6-0.6,7.6,1.2,3.8,7.3c-3.5,5.7-13.8,23.6-14.8,25.6
			c-1.1,2,0,3.8,2.7,2.4c2.9-1.5,11.2-6,12.7-7.1c1.5-1.1,3.6,1.4,1.7,2.7c-2,1.4-13.6,8.3-17.5,9.4c-3.2,0.9-5.7,1.2-8.9,0.5
			c-2.6-0.6-4.5-2.6-2.3-6.8c2.4-4.4,15-25.7,16-27.5c1.2-2.1-5.3-1.2-6-1.1L-3375.6,1336z"/>
		<path class="st0" d="M-3403.2,1316.3c0,0,14.5-16.8,33-23.3c0,0,23.7-10.4,40.5,2.1c11.3,11,11,20.9,9.4,39.6l8-0.6
			c2.3-22.8-1.7-37.5-18.6-45.4c-20.3-9.4-42.5,0.5-52.9,7.7s-20.3,19.1-21,20C-3405,1316.8-3403.2,1316.3-3403.2,1316.3z"/>
		<path class="st0" d="M-3410.3,1322.1c0,0-10,6.8-11.9,27.4c-2,20.6,4.1,38.1,17.4,46.9c9.1,5.9,22.4,4.7,25.9,4.2
			c5.1-0.8,13.3-2.7,15.3-3.6l2.1-8c0,0-11.5,4.4-17.4,5.7c-8.2,1.8-21.6,2.6-29.5-8c-4.7-6.2-7.9-18-7.1-24c0.8-4.2,1.5-15,5-18
			c2.6-2.3,9.1-11.3,11.2-17.8c2.1-6.5-2.9-9.5-2.9-9.5l-3.2,4.7C-3405.5,1322.1-3408.8,1320.6-3410.3,1322.1z"/>
	</g>
</g>
</svg>
