<?xml version="1.0" encoding="UTF-8"?>
<svg id="Layer_1" xmlns="http://www.w3.org/2000/svg" version="1.1" viewBox="0 0 590 250.6">
  <!-- Generator: Adobe Illustrator 30.1.0, SVG Export Plug-In . SVG Version: 2.1.1 Build 136)  -->
  <defs>
    <style>
      .st0 {
        fill: #1f1f20;
      }

      .st1 {
        fill: #666766;
      }

      .st2 {
        fill: #045eb7;
      }
    </style>
  </defs>
  <polygon class="st0" points="590 108.7 540.4 89.2 550.2 103.1 57.2 108.7 550.2 114.4 540.4 128.4 590 108.7"/>
  <g>
    <path class="st1" d="M80.4,224.4v-13.7c0-1.7-.3-2.9-1-3.8-.7-.8-1.7-1.3-3.2-1.3s-1.9.2-2.6.5c-.7.3-1.3.8-1.7,1.5-.4.7-.7,1.5-.9,2.4-.2,1-.3,2-.3,3.3v11h-3.5v-30.1h3.5v8.9l-.2,2.8h.2c.3-.6.7-1,1.1-1.4s.9-.7,1.5-1c.5-.3,1.1-.5,1.7-.6s1.2-.2,1.8-.2c2.4,0,4.1.6,5.3,1.8,1.2,1.2,1.8,3.2,1.8,5.9v13.9h-3.5Z"/>
    <path class="st1" d="M106.9,213.8c0,1.8-.2,3.3-.6,4.7-.4,1.4-1.1,2.5-1.9,3.5-.8.9-1.8,1.6-2.9,2.1-1.1.5-2.4.7-3.9.7s-2.6-.2-3.7-.7c-1.1-.5-2.1-1.2-2.9-2.1-.8-.9-1.5-2.1-1.9-3.5-.5-1.4-.7-2.9-.7-4.7s.2-3.3.6-4.7c.4-1.4,1-2.5,1.8-3.4s1.8-1.6,2.9-2.1c1.2-.5,2.4-.7,3.9-.7s2.6.2,3.7.7c1.1.5,2.1,1.2,2.9,2.1s1.5,2.1,1.9,3.4c.5,1.4.7,2.9.7,4.7ZM92,213.8c0,2.7.4,4.7,1.3,6.1.9,1.4,2.3,2,4.3,2s3.4-.7,4.3-2c.9-1.4,1.3-3.4,1.3-6.1s-.4-4.7-1.3-6-2.3-2-4.3-2-3.4.7-4.3,2c-.9,1.3-1.3,3.3-1.3,6Z"/>
    <path class="st1" d="M124.3,218.6c0,1-.2,1.9-.6,2.7-.4.8-.9,1.4-1.6,1.9-.7.5-1.5.9-2.5,1.2s-2.1.4-3.3.4-2.6-.1-3.6-.3c-1-.2-1.9-.6-2.6-1v-3.2c.4.2.8.4,1.3.6.5.2,1,.4,1.5.5.5.2,1.1.3,1.7.4.6,0,1.1.1,1.7.1.8,0,1.5,0,2.1-.2s1.1-.3,1.4-.6c.4-.3.6-.6.8-1s.3-.8.3-1.3,0-.8-.2-1.1-.4-.6-.7-1-.8-.6-1.4-1-1.4-.7-2.3-1.1c-.9-.4-1.8-.8-2.5-1.2-.7-.4-1.4-.8-1.9-1.3-.5-.5-.9-1-1.2-1.7-.3-.6-.4-1.4-.4-2.2s.2-1.7.5-2.4.9-1.3,1.5-1.8c.6-.5,1.4-.8,2.3-1.1.9-.2,1.9-.4,3-.4s2.4.1,3.4.4,2,.6,2.9,1.1l-1.2,2.8c-.8-.4-1.7-.7-2.6-1s-1.8-.4-2.7-.4c-1.3,0-2.3.2-2.9.6-.6.4-.9,1-.9,1.8s0,.8.2,1.2c.1.3.4.7.8.9.4.3.8.6,1.4.9.6.3,1.4.6,2.3,1,.9.4,1.8.8,2.5,1.2s1.4.8,1.9,1.3c.5.5.9,1,1.2,1.7.3.6.4,1.4.4,2.2Z"/>
    <path class="st1" d="M135,221.9c.2,0,.5,0,.8,0,.3,0,.6,0,.8,0s.5,0,.7-.1c.2,0,.4,0,.5-.1v2.7c-.2,0-.4.2-.6.2-.3,0-.5.1-.9.2-.3,0-.6.1-1,.1-.3,0-.7,0-1,0-.8,0-1.5-.1-2.2-.3-.7-.2-1.3-.6-1.8-1.1-.5-.5-.9-1.2-1.2-2-.3-.9-.4-1.9-.4-3.2v-12.3h-3v-1.6l3-1.5,1.5-4.4h2v4.9h5.3v2.6h-5.3v12.3c0,1.2.2,2.2.6,2.8.4.6,1.1.9,2,.9Z"/>
    <path class="st1" d="M140.8,197.5c0-.8.2-1.3.6-1.7.4-.3.9-.5,1.5-.5s.6,0,.8.1c.3,0,.5.2.7.4.2.2.3.4.4.7.1.3.2.6.2,1,0,.7-.2,1.3-.6,1.7-.4.4-.9.6-1.5.6s-1.1-.2-1.5-.5c-.4-.4-.6-.9-.6-1.7ZM144.6,224.4h-3.5v-21.2h3.5v21.2Z"/>
    <path class="st1" d="M163.7,224.4v-13.7c0-1.7-.3-2.9-1-3.8-.7-.8-1.7-1.3-3.2-1.3s-1.9.2-2.6.5c-.7.3-1.3.8-1.7,1.5-.4.7-.7,1.5-.9,2.4-.2,1-.3,2-.3,3.3v11h-3.5v-21.2h2.9l.5,2.9h.2c.3-.6.7-1,1.1-1.4s.9-.7,1.5-1c.5-.3,1.1-.5,1.7-.6s1.2-.2,1.8-.2c2.4,0,4.1.6,5.3,1.8,1.2,1.2,1.8,3.2,1.8,5.9v13.9h-3.5Z"/>
    <path class="st1" d="M189.3,203.2v2.2l-3.8.5c.4.5.7,1,.9,1.7.2.7.4,1.5.4,2.4s-.2,1.9-.5,2.7c-.3.8-.8,1.5-1.4,2.2-.6.6-1.4,1.1-2.3,1.4-.9.3-2,.5-3.2.5s-.6,0-.9,0c-.3,0-.5,0-.7,0-.2.1-.4.3-.6.4s-.4.3-.6.6c-.2.2-.3.4-.4.7s-.2.5-.2.9,0,.6.2.8.4.4.6.5c.3.1.6.2.9.2.4,0,.7,0,1.1,0h3.4c1.2,0,2.2.2,3,.5s1.5.7,2,1.2.9,1.1,1.1,1.8.3,1.4.3,2.2c0,1.1-.2,2.2-.6,3.1-.4.9-1.1,1.7-1.9,2.3s-2,1.1-3.3,1.4c-1.3.3-2.9.5-4.7.5s-2.6-.1-3.6-.4-1.9-.7-2.6-1.2c-.7-.5-1.2-1.1-1.5-1.9-.3-.7-.5-1.5-.5-2.5s.1-1.5.4-2c.3-.6.6-1.1,1-1.5.4-.4.9-.8,1.5-1s1.1-.5,1.7-.6c-.5-.2-1-.6-1.3-1.2-.3-.5-.5-1.1-.5-1.8s.2-1.5.6-2c.4-.6,1.1-1.1,2-1.7-.6-.2-1.1-.6-1.5-1-.5-.4-.8-.9-1.2-1.4-.3-.5-.6-1.1-.7-1.7-.2-.6-.3-1.3-.3-1.9,0-1.1.2-2.2.5-3.1.3-.9.8-1.7,1.4-2.3s1.4-1.1,2.4-1.4,2-.5,3.3-.5,1,0,1.5.1c.5,0,.9.2,1.3.3h7ZM173.6,227.9c0,.5,0,.9.3,1.3.2.4.4.8.8,1.1.4.3.9.5,1.5.7.6.2,1.4.3,2.3.3,2.4,0,4.2-.4,5.4-1.1,1.2-.7,1.8-1.8,1.8-3.2s0-1.1-.2-1.5c-.2-.4-.4-.7-.8-.9-.4-.2-.8-.4-1.4-.4-.6,0-1.3-.1-2.1-.1h-3.4c-.5,0-.9,0-1.4.2-.5.1-.9.3-1.3.6-.4.3-.7.7-1,1.2s-.4,1.1-.4,1.9ZM175.4,210c0,1.5.3,2.6,1,3.3s1.7,1.1,3,1.1,2.3-.4,2.9-1.1,1-1.8,1-3.4-.3-2.8-1-3.5c-.7-.7-1.7-1.1-2.9-1.1s-2.3.4-2.9,1.2-1,1.9-1,3.5Z"/>
    <path class="st1" d="M200.7,224.8c-1.3,0-2.5-.2-3.7-.6-1.1-.4-2.1-1-3-1.9-.8-.9-1.5-2-2-3.4-.5-1.4-.7-3-.7-5s.2-3.7.7-5.2c.5-1.4,1.2-2.6,2-3.4.9-.9,1.9-1.5,3-1.9,1.1-.4,2.4-.6,3.7-.6s2,.1,2.9.3,1.8.5,2.4.8l-1,3c-.3-.1-.6-.3-1-.4-.4-.1-.7-.2-1.1-.3s-.8-.2-1.1-.2c-.4,0-.7,0-1.1,0-2,0-3.5.6-4.4,1.9-.9,1.3-1.4,3.3-1.4,6s.5,4.7,1.4,6c.9,1.3,2.4,1.9,4.3,1.9s2-.1,2.8-.4c.8-.2,1.6-.5,2.3-.8v3.1c-.7.4-1.4.7-2.2.9s-1.8.3-2.9.3Z"/>
    <path class="st1" d="M218.4,224.8c-1.4,0-2.7-.2-3.9-.7-1.2-.5-2.2-1.2-3-2.1-.8-.9-1.5-2-2-3.4s-.7-2.9-.7-4.6.2-3.3.6-4.7c.4-1.4,1-2.5,1.8-3.5.8-1,1.7-1.7,2.8-2.2,1.1-.5,2.3-.8,3.6-.8s2.4.2,3.4.7c1,.5,1.9,1.1,2.6,1.9.7.8,1.3,1.8,1.6,3,.4,1.2.6,2.5.6,3.9v2.2h-13.4c0,2.5.6,4.3,1.6,5.5,1,1.2,2.5,1.8,4.4,1.8s1.3,0,1.8,0,1.1-.2,1.6-.3c.5-.1,1-.3,1.5-.5.5-.2,1-.4,1.5-.6v3.1c-.5.2-1,.5-1.5.6s-1,.3-1.5.4c-.5.1-1.1.2-1.6.3-.6,0-1.2,0-1.8,0ZM217.5,205.7c-1.5,0-2.6.5-3.5,1.5s-1.4,2.5-1.5,4.4h9.5c0-.9,0-1.7-.3-2.4-.2-.7-.4-1.3-.8-1.9-.4-.5-.8-.9-1.4-1.2s-1.2-.4-2-.4Z"/>
    <path class="st1" d="M239.5,202.8c.4,0,.8,0,1.3,0s.9,0,1.2.1l-.5,3.2c-.4,0-.7-.1-1.1-.2-.4,0-.7,0-1.1,0-.8,0-1.6.2-2.2.5-.7.3-1.2.8-1.7,1.4s-.9,1.3-1.1,2.2c-.3.9-.4,1.8-.4,2.9v11.4h-3.5v-21.2h2.9l.4,3.9h.2c.3-.6.7-1.1,1-1.6s.8-1,1.2-1.4c.5-.4,1-.7,1.5-.9.6-.2,1.2-.4,1.9-.4Z"/>
    <path class="st1" d="M251.7,221.9c.2,0,.5,0,.8,0,.3,0,.6,0,.8,0s.5,0,.7-.1c.2,0,.4,0,.5-.1v2.7c-.2,0-.4.2-.6.2-.3,0-.5.1-.9.2-.3,0-.6.1-1,.1-.3,0-.7,0-1,0-.8,0-1.5-.1-2.2-.3-.7-.2-1.3-.6-1.8-1.1-.5-.5-.9-1.2-1.2-2-.3-.9-.4-1.9-.4-3.2v-12.3h-3v-1.6l3-1.5,1.5-4.4h2v4.9h5.3v2.6h-5.3v12.3c0,1.2.2,2.2.6,2.8.4.6,1.1.9,2,.9Z"/>
    <path class="st1" d="M257.5,197.5c0-.8.2-1.3.6-1.7.4-.3.9-.5,1.5-.5s.6,0,.8.1c.3,0,.5.2.7.4.2.2.3.4.4.7.1.3.2.6.2,1,0,.7-.2,1.3-.6,1.7-.4.4-.9.6-1.5.6s-1.1-.2-1.5-.5c-.4-.4-.6-.9-.6-1.7ZM261.3,224.4h-3.5v-21.2h3.5v21.2Z"/>
    <path class="st1" d="M276.4,205.9h-4.7v18.6h-3.5v-18.6h-3.8v-1.5l3.8-1.3v-1.9c0-1.4.1-2.5.4-3.4.3-.9.7-1.6,1.3-2.2s1.2-.9,2-1.2c.8-.2,1.7-.3,2.7-.3s1.5,0,2.1.2c.6.1,1.2.3,1.7.5l-.9,2.7c-.4-.1-.8-.3-1.3-.4s-1-.2-1.5-.2-1,0-1.3.2-.7.3-.9.6c-.2.3-.4.7-.6,1.3-.1.5-.2,1.2-.2,2.1v2h4.7v2.6Z"/>
    <path class="st1" d="M279,197.5c0-.8.2-1.3.6-1.7.4-.3.9-.5,1.5-.5s.6,0,.8.1c.3,0,.5.2.7.4.2.2.3.4.4.7.1.3.2.6.2,1,0,.7-.2,1.3-.6,1.7-.4.4-.9.6-1.5.6s-1.1-.2-1.5-.5c-.4-.4-.6-.9-.6-1.7ZM282.8,224.4h-3.5v-21.2h3.5v21.2Z"/>
    <path class="st1" d="M296.8,224.8c-1.3,0-2.5-.2-3.7-.6-1.1-.4-2.1-1-3-1.9-.8-.9-1.5-2-2-3.4-.5-1.4-.7-3-.7-5s.2-3.7.7-5.2c.5-1.4,1.2-2.6,2-3.4.9-.9,1.9-1.5,3-1.9,1.1-.4,2.4-.6,3.7-.6s2,.1,2.9.3c1,.2,1.8.5,2.4.8l-1,3c-.3-.1-.6-.3-1-.4-.4-.1-.7-.2-1.1-.3s-.8-.2-1.1-.2c-.4,0-.7,0-1.1,0-2,0-3.5.6-4.4,1.9-.9,1.3-1.4,3.3-1.4,6s.5,4.7,1.4,6c.9,1.3,2.4,1.9,4.3,1.9s2-.1,2.8-.4c.8-.2,1.6-.5,2.3-.8v3.1c-.7.4-1.4.7-2.2.9s-1.8.3-2.9.3Z"/>
    <path class="st1" d="M318.1,224.4l-.7-2.9h-.2c-.4.6-.9,1.1-1.3,1.5-.4.4-.9.8-1.4,1-.5.3-1.1.5-1.7.6-.6.1-1.3.2-2.1.2s-1.7-.1-2.5-.4-1.4-.6-1.9-1.2c-.5-.5-1-1.2-1.3-2-.3-.8-.5-1.7-.5-2.8,0-2.1.7-3.7,2.2-4.9s3.8-1.8,6.8-1.9h3.6v-1.5c0-.9,0-1.6-.3-2.2-.2-.6-.5-1-.8-1.4s-.8-.6-1.3-.8c-.5-.2-1.1-.2-1.8-.2-1.1,0-2.1.2-3,.5-.9.3-1.8.7-2.7,1.1l-1.2-2.6c1-.5,2-1,3.2-1.3,1.2-.4,2.4-.5,3.7-.5s2.5.1,3.4.4c1,.3,1.8.7,2.4,1.3.6.6,1.1,1.3,1.4,2.2.3.9.5,2,.5,3.2v14.5h-2.5ZM311.7,222c.8,0,1.5-.1,2.2-.4.7-.2,1.2-.6,1.7-1.1.5-.5.9-1.1,1.1-1.9s.4-1.6.4-2.7v-1.9h-2.8c-1.2.2-2.1.3-2.9.5-.8.2-1.4.5-1.9.9-.5.4-.8.8-1,1.3-.2.5-.3,1.1-.3,1.8,0,1.2.3,2.1.9,2.6.6.6,1.4.8,2.5.8Z"/>
    <path class="st1" d="M332.7,221.9c.2,0,.5,0,.8,0,.3,0,.6,0,.8,0,.3,0,.5,0,.7-.1.2,0,.4,0,.5-.1v2.7c-.2,0-.4.2-.6.2s-.5.1-.9.2c-.3,0-.6.1-1,.1s-.7,0-1,0c-.8,0-1.5-.1-2.2-.3-.7-.2-1.3-.6-1.8-1.1-.5-.5-.9-1.2-1.2-2-.3-.9-.4-1.9-.4-3.2v-12.3h-3v-1.6l3-1.5,1.5-4.4h2v4.9h5.3v2.6h-5.3v12.3c0,1.2.2,2.2.6,2.8.4.6,1.1.9,2,.9Z"/>
    <path class="st1" d="M338.6,197.5c0-.8.2-1.3.6-1.7.4-.3.9-.5,1.5-.5s.6,0,.8.1c.3,0,.5.2.7.4.2.2.3.4.4.7s.2.6.2,1c0,.7-.2,1.3-.6,1.7-.4.4-.9.6-1.5.6s-1.1-.2-1.5-.5c-.4-.4-.6-.9-.6-1.7ZM342.3,224.4h-3.5v-21.2h3.5v21.2Z"/>
    <path class="st1" d="M365.5,213.8c0,1.8-.2,3.3-.6,4.7-.4,1.4-1.1,2.5-1.9,3.5-.8.9-1.8,1.6-2.9,2.1-1.1.5-2.4.7-3.9.7s-2.6-.2-3.7-.7c-1.1-.5-2.1-1.2-2.9-2.1-.8-.9-1.5-2.1-1.9-3.5-.5-1.4-.7-2.9-.7-4.7s.2-3.3.6-4.7c.4-1.4,1-2.5,1.8-3.4s1.8-1.6,2.9-2.1c1.2-.5,2.4-.7,3.9-.7s2.6.2,3.7.7c1.1.5,2.1,1.2,2.9,2.1.8.9,1.5,2.1,1.9,3.4.5,1.4.7,2.9.7,4.7ZM350.7,213.8c0,2.7.4,4.7,1.3,6.1s2.3,2,4.3,2,3.4-.7,4.3-2c.9-1.4,1.3-3.4,1.3-6.1s-.4-4.7-1.3-6c-.9-1.3-2.3-2-4.3-2s-3.4.7-4.3,2-1.3,3.3-1.3,6Z"/>
    <path class="st1" d="M383.4,224.4v-13.7c0-1.7-.3-2.9-1-3.8-.7-.8-1.7-1.3-3.2-1.3s-1.9.2-2.6.5c-.7.3-1.3.8-1.7,1.5s-.7,1.5-.9,2.4c-.2,1-.3,2-.3,3.3v11h-3.5v-21.2h2.9l.5,2.9h.2c.3-.6.7-1,1.2-1.4s.9-.7,1.5-1,1.1-.5,1.7-.6c.6-.1,1.2-.2,1.8-.2,2.4,0,4.1.6,5.3,1.8,1.2,1.2,1.8,3.2,1.8,5.9v13.9h-3.5Z"/>
    <path class="st1" d="M392.1,222.3c0-.5,0-.9.2-1.2.1-.3.3-.6.5-.8s.5-.4.8-.5c.3,0,.6-.1,1-.1s.7,0,1,.1.6.3.8.5c.2.2.4.5.5.8.1.3.2.8.2,1.2s0,.9-.2,1.2-.3.6-.5.8c-.2.2-.5.4-.8.5-.3.1-.6.2-1,.2s-.7,0-1-.2c-.3-.1-.6-.3-.8-.5s-.4-.5-.5-.8c-.1-.3-.2-.8-.2-1.2Z"/>
    <path class="st1" d="M410.5,224.8c-1.3,0-2.5-.2-3.7-.6-1.1-.4-2.1-1-3-1.9s-1.5-2-2-3.4-.7-3-.7-5,.2-3.7.7-5.2c.5-1.4,1.2-2.6,2-3.4.9-.9,1.9-1.5,3-1.9,1.1-.4,2.4-.6,3.7-.6s2,.1,2.9.3c1,.2,1.8.5,2.4.8l-1,3c-.3-.1-.6-.3-1-.4-.4-.1-.7-.2-1.1-.3-.4,0-.8-.2-1.1-.2-.4,0-.7,0-1.1,0-2,0-3.5.6-4.4,1.9-.9,1.3-1.4,3.3-1.4,6s.5,4.7,1.4,6c.9,1.3,2.4,1.9,4.3,1.9s2-.1,2.8-.4c.8-.2,1.6-.5,2.3-.8v3.1c-.7.4-1.4.7-2.2.9-.8.2-1.8.3-2.9.3Z"/>
    <path class="st1" d="M437.1,213.8c0,1.8-.2,3.3-.6,4.7-.4,1.4-1.1,2.5-1.9,3.5-.8.9-1.8,1.6-2.9,2.1-1.1.5-2.4.7-3.9.7s-2.6-.2-3.7-.7c-1.1-.5-2.1-1.2-2.9-2.1-.8-.9-1.5-2.1-1.9-3.5-.5-1.4-.7-2.9-.7-4.7s.2-3.3.6-4.7c.4-1.4,1-2.5,1.8-3.4s1.8-1.6,2.9-2.1c1.2-.5,2.4-.7,3.9-.7s2.6.2,3.7.7c1.1.5,2.1,1.2,2.9,2.1.8.9,1.5,2.1,1.9,3.4.5,1.4.7,2.9.7,4.7ZM422.3,213.8c0,2.7.4,4.7,1.3,6.1s2.3,2,4.3,2,3.4-.7,4.3-2c.9-1.4,1.3-3.4,1.3-6.1s-.4-4.7-1.3-6c-.9-1.3-2.3-2-4.3-2s-3.4.7-4.3,2-1.3,3.3-1.3,6Z"/>
    <path class="st1" d="M467.2,224.4v-13.7c0-1.7-.3-2.9-1-3.8-.6-.8-1.6-1.3-3-1.3s-1.7.2-2.4.5c-.7.3-1.2.7-1.6,1.3-.4.6-.7,1.3-.9,2.2s-.3,1.9-.3,3v11.7h-3.5v-13.7c0-1.7-.3-2.9-1-3.8s-1.6-1.3-3-1.3-1.8.2-2.5.5-1.2.8-1.6,1.5c-.4.7-.7,1.5-.9,2.4-.2,1-.3,2-.3,3.3v11h-3.5v-21.2h2.9l.5,2.9h.2c.3-.6.7-1,1.1-1.4.4-.4.9-.7,1.4-1,.5-.3,1-.5,1.6-.6s1.2-.2,1.8-.2c1.5,0,2.8.3,3.9.9,1,.6,1.8,1.5,2.3,2.7h.2c.3-.6.7-1.1,1.2-1.6.5-.4,1-.8,1.5-1.1s1.2-.5,1.8-.6c.6-.1,1.2-.2,1.9-.2,2.3,0,4,.6,5.1,1.8s1.7,3.2,1.7,5.9v13.9h-3.5Z"/>
    <path class="st1" d="M475.9,222.3c0-.5,0-.9.2-1.2.1-.3.3-.6.5-.8s.5-.4.8-.5c.3,0,.6-.1,1-.1s.7,0,1,.1.6.3.8.5c.2.2.4.5.5.8.1.3.2.8.2,1.2s0,.9-.2,1.2-.3.6-.5.8c-.2.2-.5.4-.8.5-.3.1-.6.2-1,.2s-.7,0-1-.2c-.3-.1-.6-.3-.8-.5s-.4-.5-.5-.8c-.1-.3-.2-.8-.2-1.2Z"/>
    <path class="st1" d="M498.1,224.4l-.7-2.9h-.2c-.4.6-.9,1.1-1.3,1.5-.4.4-.9.8-1.4,1-.5.3-1.1.5-1.7.6-.6.1-1.3.2-2.1.2s-1.7-.1-2.5-.4-1.4-.6-1.9-1.2c-.5-.5-1-1.2-1.3-2-.3-.8-.5-1.7-.5-2.8,0-2.1.7-3.7,2.2-4.9s3.8-1.8,6.8-1.9h3.6v-1.5c0-.9,0-1.6-.3-2.2-.2-.6-.5-1-.8-1.4s-.8-.6-1.3-.8c-.5-.2-1.1-.2-1.8-.2-1.1,0-2.1.2-3,.5-.9.3-1.8.7-2.7,1.1l-1.2-2.6c1-.5,2-1,3.2-1.3,1.2-.4,2.4-.5,3.7-.5s2.5.1,3.4.4c1,.3,1.8.7,2.4,1.3.6.6,1.1,1.3,1.4,2.2.3.9.5,2,.5,3.2v14.5h-2.5ZM491.6,222c.8,0,1.5-.1,2.2-.4.7-.2,1.2-.6,1.7-1.1.5-.5.9-1.1,1.1-1.9s.4-1.6.4-2.7v-1.9h-2.8c-1.2.2-2.1.3-2.9.5-.8.2-1.4.5-1.9.9-.5.4-.8.8-1,1.3-.2.5-.3,1.1-.3,1.8,0,1.2.3,2.1.9,2.6.6.6,1.4.8,2.5.8Z"/>
    <path class="st1" d="M520,224.4l-.5-2.8h-.2c-.3.6-.7,1-1.1,1.4-.4.4-.9.7-1.5,1-.5.3-1.1.5-1.7.6s-1.2.2-1.8.2c-1.2,0-2.2-.1-3.1-.4-.9-.3-1.6-.8-2.2-1.4-.6-.6-1-1.4-1.3-2.4-.3-1-.5-2.1-.5-3.5v-13.9h3.5v13.7c0,1.7.3,2.9,1,3.8.7.8,1.7,1.3,3.2,1.3s1.9-.2,2.6-.5c.7-.3,1.3-.8,1.7-1.5.4-.7.7-1.5.9-2.4.2-1,.3-2,.3-3.3v-11h3.5v21.2h-2.8Z"/>
  </g>
  <g>
    <path class="st2" d="M76.4,128.4h17.2l-3.2,5.8h-9.7l-3.1,5.6h9.2l-3.1,5.7h-9.2l-5.8,10.8h-7.4l15.1-27.9Z"/>
    <path class="st2" d="M99.1,128.9c2.2-.4,5.3-.7,8.3-.7s5.7.3,7.4,1.6c1.6,1.1,2.4,2.9,1.5,5.5-1.4,4.2-5.1,6.8-9.2,8h0c1.4.9,1.5,2.5.9,5.1-.6,2.8-1.8,6.8-1.6,8h-7.5c0-.8.6-3.2,1.5-6.5.9-3.2.2-4-2-4h-1.2l-5.7,10.6h-7.2l14.8-27.4ZM100,140.7h2c2.8,0,5.6-1.9,6.4-4.4.6-1.7-.5-2.8-2.6-2.8s-1.6,0-2,.1l-3.7,7Z"/>
    <path class="st2" d="M121.4,150.1l-4.9,6.3h-7.7l23-27.9h9.3l-7,27.9h-7.6l1.9-6.3h-7.1ZM130.1,145l1.6-5.3c.5-1.6,1.3-4.2,1.9-6h0c-1.4,1.8-3.2,4.5-4.4,6l-4,5.3h5Z"/>
    <path class="st2" d="M161.3,156.3l4.8-9.6c1.4-2.9,3.3-6.5,5.7-10.9h-.1c-3,4-6.1,7.9-8.4,10.6l-7.8,9.4h-5.7l2.6-9.4c.7-2.6,1.8-6.6,3.1-10.6h0c-2.3,4.1-4.5,8.1-6.2,10.9l-5.6,9.6h-6.6l16.9-27.9h9.3l-2.8,9.4c-.7,2.5-1.6,5.9-2.7,9h.2c2.1-3.1,4.9-6.6,6.8-9l7.4-9.4h9.4l-13.4,27.9h-6.9Z"/>
    <path class="st2" d="M196.6,144.9h-9.4l-3.1,5.6h10.6l-3.2,5.8h-17.9l15.1-27.9h17.3l-3.2,5.8h-9.9l-2.7,4.9h9.4l-3.1,5.7Z"/>
    <path class="st2" d="M200.7,156.3l9-27.9h7.5l-4.1,10.6c-1.3,3.3-2.6,6.9-3.8,9.8h0c2.2-3.2,4.4-6.3,6.8-9.6l7.9-10.9h7.7l-4.1,10.9c-1.2,3.2-2.4,6.2-3.7,9.5h0c2.1-3.2,4.3-6.5,6.5-9.6l7.4-10.7h7.6l-21.6,27.9h-8l2.9-8.7c1.1-3.4,2.4-6.8,3.7-9.9h0c-2.2,3.1-4.5,6.5-7.6,10.5l-6.1,8h-8Z"/>
    <path class="st2" d="M267.9,138.9c-1.8,5.5-5.6,11-10.3,14.2-3.4,2.3-7.3,3.7-11.4,3.7-7.6,0-9.4-5.4-7.6-11,1.8-5.3,5.6-10.8,10.5-14.1,3.4-2.3,7.3-3.7,11.3-3.7,7.6,0,9.5,5,7.5,10.9ZM253.4,135.2c-3,2.1-6,7.2-7.2,10.7-1,2.9-.4,5.2,2.8,5.2s2.7-.5,3.9-1.4c3.1-2.2,6.2-7.9,7.1-10.9.9-2.6.7-5.1-2.6-5.1s-2.8.6-4.1,1.5Z"/>
    <path class="st2" d="M278.6,128.9c2.2-.4,5.3-.7,8.3-.7s5.7.3,7.4,1.6c1.6,1.1,2.4,2.9,1.5,5.5-1.4,4.2-5.1,6.8-9.2,8h0c1.4.9,1.5,2.5.9,5.1-.6,2.8-1.8,6.8-1.6,8h-7.5c0-.8.6-3.2,1.5-6.5.9-3.2.2-4-2-4h-1.2l-5.7,10.6h-7.2l14.8-27.4ZM279.5,140.7h2c2.8,0,5.6-1.9,6.4-4.4.6-1.7-.5-2.8-2.6-2.8s-1.6,0-2,.1l-3.7,7Z"/>
    <path class="st2" d="M305.3,128.4h7.2l-6.6,12.3h.1c1.3-1.4,2.5-2.4,3.7-3.6l9.6-8.7h8.8l-15.2,12.2.4,15.7h-7.9l.3-11.3-3.5,2.6-4.8,8.7h-7.2l15.1-27.9Z"/>
    <path class="st2" d="M340,128.9c2.2-.4,5.4-.7,8.2-.7s5.6.3,7.4,1.9c1.6,1.3,2.1,3.4,1.2,5.9-1.3,3.8-4.1,6.6-7.1,8.3-3,1.7-6.7,2.5-10.1,2.5s-1.5,0-2-.1l-5.2,9.6h-7.2l14.8-27.4ZM340.6,141.2c.4,0,.9.1,1.8.1,3.5,0,6.1-2.5,6.9-4.7.7-2.2-.6-3-2.6-3s-1.6,0-2.1.1l-4,7.4Z"/>
    <path class="st2" d="M359,150.1l-4.9,6.3h-7.7l23-27.9h9.3l-7,27.9h-7.6l1.9-6.3h-7.1ZM367.7,145l1.6-5.3c.5-1.6,1.3-4.2,1.9-6h0c-1.4,1.8-3.2,4.5-4.4,6l-4,5.3h5Z"/>
    <path class="st2" d="M390.4,128.9c2.2-.4,5.3-.7,8.3-.7s5.7.3,7.4,1.6c1.6,1.1,2.4,2.9,1.5,5.5-1.4,4.2-5.1,6.8-9.2,8h0c1.4.9,1.5,2.5.9,5.1-.6,2.8-1.8,6.8-1.6,8h-7.5c0-.8.6-3.2,1.5-6.5.9-3.2.2-4-2-4h-1.2l-5.7,10.6h-7.2l14.8-27.4ZM391.3,140.7h2c2.8,0,5.6-1.9,6.4-4.4.6-1.7-.5-2.8-2.6-2.8s-1.6,0-2,.1l-3.7,7Z"/>
    <path class="st2" d="M417.9,134.5h-6.9l3.3-6.1h21.2l-3.3,6.1h-7l-11.8,21.9h-7.4l11.8-21.9Z"/>
    <path class="st2" d="M424.6,156.3l15.1-27.9h8.2l-.4,8.7c-.2,3.8-.4,6.9-.9,9.9h.1c1.2-3,3.1-7,5.5-11.5l3.8-7.1h6.7l-15.1,27.9h-7.3l.2-9c.1-4.1.3-6.5.8-10.2h-.1c-1.3,2.8-3.6,7.4-6.2,12.3l-3.7,6.8h-6.7Z"/>
    <path class="st2" d="M476.8,144.9h-9.4l-3.1,5.6h10.6l-3.2,5.8h-17.9l15.1-27.9h17.3l-3.2,5.8h-9.9l-2.7,4.9h9.4l-3.1,5.7Z"/>
    <path class="st2" d="M491.8,128.9c2.2-.4,5.3-.7,8.3-.7s5.7.3,7.4,1.6c1.6,1.1,2.4,2.9,1.5,5.5-1.4,4.2-5.1,6.8-9.2,8h0c1.4.9,1.5,2.5.9,5.1-.6,2.8-1.8,6.8-1.6,8h-7.5c0-.8.6-3.2,1.5-6.5.9-3.2.2-4-2-4h-1.2l-5.7,10.6h-7.2l14.8-27.4ZM492.7,140.7h2c2.8,0,5.6-1.9,6.4-4.4.6-1.7-.5-2.8-2.6-2.8s-1.6,0-2,.1l-3.7,7Z"/>
    <path class="st2" d="M507.1,149.3c1.3.8,3.4,1.5,6,1.5,2.1,0,4.2-.8,4.8-2.5.5-1.5-.5-2.3-2.4-3.7-2.2-1.6-4.3-3.8-3.1-7.3,1.9-5.8,8.3-9.4,15.1-9.4s5.3.6,6.3,1.2l-4.1,5.7c-.8-.5-2.5-1.1-4.7-1.1-2.5,0-4.2,1.1-4.7,2.5s.8,2.1,2.7,3.6c2.7,1.9,4,4.2,3,7.1-2.2,6.6-8.9,9.6-15.4,9.6s-6.7-.9-7.7-1.7l4.1-5.7Z"/>
  </g>
  <g>
    <path class="st2" d="M87.1,61.2l-5.8,10.7h8.3l5.8-10.7h7.4l-15.1,27.9h-7.4l6-11.2h-8.3l-6,11.2h-7.4l15.1-27.9h7.4Z"/>
    <path class="st2" d="M127.8,71.7c-1.8,5.5-5.6,11-10.3,14.2-3.4,2.3-7.3,3.7-11.4,3.7-7.6,0-9.4-5.4-7.6-11,1.8-5.3,5.6-10.8,10.5-14.1,3.4-2.3,7.3-3.7,11.3-3.7,7.6,0,9.5,5,7.5,10.9ZM113.4,68c-3,2.1-6,7.2-7.2,10.7-1,2.9-.4,5.2,2.8,5.2s2.6-.5,3.9-1.4c3.1-2.2,6.2-7.9,7.1-10.9.9-2.6.7-5.1-2.6-5.1s-2.8.6-4.1,1.5Z"/>
    <path class="st2" d="M127.3,82.2c1.3.8,3.4,1.5,6,1.5,2.1,0,4.2-.8,4.8-2.5.5-1.5-.5-2.3-2.4-3.7-2.2-1.6-4.3-3.8-3.1-7.3,1.9-5.8,8.3-9.4,15.1-9.4s5.3.6,6.3,1.2l-4.1,5.7c-.8-.5-2.5-1.1-4.7-1.1-2.5,0-4.2,1.1-4.7,2.5-.4,1.3.8,2.1,2.7,3.6,2.7,1.9,4,4.2,3,7.1-2.2,6.6-8.9,9.6-15.4,9.6s-6.7-.9-7.7-1.7l4.1-5.7Z"/>
    <path class="st2" d="M162.3,67.3h-6.9l3.3-6.1h21.2l-3.3,6.1h-7l-11.8,21.9h-7.4l11.8-21.9Z"/>
    <path class="st2" d="M191.1,61.2l-15.1,27.9h-7.4l15.1-27.9h7.4Z"/>
    <path class="st2" d="M182,89.2l15.1-27.9h8.2l-.4,8.7c-.2,3.8-.4,6.9-.9,9.9h.1c1.2-3,3.1-7,5.5-11.5l3.8-7.1h6.7l-15.1,27.9h-7.3l.2-9c.1-4.1.3-6.5.8-10.2h-.1c-1.3,2.8-3.6,7.4-6.2,12.3l-3.7,6.8h-6.7Z"/>
    <path class="st2" d="M234.9,88c-2.6.7-6.1,1.4-9.7,1.4s-6.8-1-8.5-2.9c-1.6-1.8-2-4.8-.9-8.2,1.9-5.6,5.8-10.2,10.6-13.3,4.1-2.6,9-4,14.1-4s6.1.6,7.1,1.1l-4.1,5.8c-1-.5-3-1-5.2-1s-4.9.6-6.8,1.7c-3.1,1.8-6,5.1-7.4,9.4-1.3,4,.6,5.7,3.8,5.7s1.8-.1,2.4-.3l2.8-5.1h-3.5l3-5.4h10.5l-8.2,15.1Z"/>
    <path class="st2" d="M268.9,88.6c-1.6.5-4,1-7.2,1-8.2,0-10.7-5.2-8.7-11.2,2.3-6.9,7-11.8,12.3-14.6,3.7-2,7.5-2.9,11.5-2.9s4.8.6,5.4.9l-3.8,5.6c-.6-.3-2.1-.7-4.3-.7s-4.3.7-6.2,1.9c-2.8,1.8-5.3,4.8-6.6,8.8-1.3,3.9.2,6.3,4.3,6.3s3.6-.3,5-.7l-1.6,5.6Z"/>
    <path class="st2" d="M295.4,77.7h-9.4l-3.1,5.6h10.6l-3.2,5.8h-17.9l15.1-27.9h17.3l-3.2,5.8h-9.9l-2.7,4.9h9.4l-3.1,5.7Z"/>
    <path class="st2" d="M310.1,61.7c2.2-.4,5.3-.7,8.3-.7s5.7.3,7.4,1.6c1.6,1.1,2.4,2.9,1.5,5.5-1.4,4.2-5.1,6.8-9.2,8h0c1.4.9,1.5,2.5.9,5.1-.6,2.8-1.8,6.8-1.6,8h-7.5c0-.8.6-3.2,1.5-6.5.9-3.2.2-4-2-4h-1.2l-5.7,10.6h-7.2l14.8-27.4ZM311,73.5h2c2.8,0,5.6-1.9,6.4-4.4.6-1.7-.5-2.8-2.6-2.8s-1.6,0-2,.1l-3.7,7Z"/>
    <path class="st2" d="M337.4,67.3h-6.9l3.3-6.1h21.2l-3.3,6.1h-7l-11.8,21.9h-7.4l11.8-21.9Z"/>
    <path class="st2" d="M366.1,61.2l-15.1,27.9h-7.4l15.1-27.9h7.4Z"/>
    <path class="st2" d="M372.1,61.2h17.2l-3.2,5.8h-9.7l-3.1,5.6h9.2l-3.1,5.7h-9.2l-5.8,10.8h-7.4l15.1-27.9Z"/>
    <path class="st2" d="M401.9,61.2l-15.1,27.9h-7.4l15.1-27.9h7.4Z"/>
    <path class="st2" d="M413.8,88.6c-1.6.5-4,1-7.2,1-8.2,0-10.7-5.2-8.7-11.2,2.3-6.9,7-11.8,12.3-14.6,3.7-2,7.5-2.9,11.5-2.9s4.8.6,5.4.9l-3.8,5.6c-.6-.3-2.1-.7-4.3-.7s-4.3.7-6.2,1.9c-2.8,1.8-5.3,4.8-6.6,8.8-1.3,3.9.2,6.3,4.3,6.3s3.6-.3,5-.7l-1.6,5.6Z"/>
    <path class="st2" d="M428.4,82.9l-4.9,6.3h-7.7l23-27.9h9.3l-7,27.9h-7.6l1.9-6.3h-7.1ZM437.1,77.8l1.6-5.3c.5-1.6,1.3-4.2,1.9-6h0c-1.4,1.8-3.2,4.5-4.4,6l-4,5.3h5Z"/>
    <path class="st2" d="M458.6,67.3h-6.9l3.3-6.1h21.2l-3.3,6.1h-7l-11.8,21.9h-7.4l11.8-21.9Z"/>
    <path class="st2" d="M487.4,61.2l-15.1,27.9h-7.4l15.1-27.9h7.4Z"/>
    <path class="st2" d="M512.5,71.7c-1.8,5.5-5.6,11-10.3,14.2-3.4,2.3-7.3,3.7-11.4,3.7-7.6,0-9.4-5.4-7.6-11,1.8-5.3,5.6-10.8,10.5-14.1,3.4-2.3,7.3-3.7,11.3-3.7,7.6,0,9.5,5,7.5,10.9ZM498,68c-3,2.1-6,7.2-7.2,10.7-1,2.9-.4,5.2,2.8,5.2s2.7-.5,3.9-1.4c3.1-2.2,6.2-7.9,7.1-10.9.9-2.6.7-5.1-2.6-5.1s-2.8.6-4.1,1.5Z"/>
    <path class="st2" d="M508.2,89.2l15.1-27.9h8.2l-.4,8.7c-.2,3.8-.4,6.9-.9,9.9h.1c1.2-3,3.1-7,5.5-11.5l3.8-7.1h6.7l-15.1,27.9h-7.3l.2-9c.1-4.1.3-6.5.8-10.2h-.1c-1.3,2.8-3.6,7.4-6.2,12.3l-3.7,6.8h-6.7Z"/>
  </g>
</svg>