<?xml version="1.0" encoding="utf-8"?>
<!-- Generator: Adobe Illustrator 19.1.0, SVG Export Plug-In . SVG Version: 6.00 Build 0)  -->
<svg version="1.1" id="Layer_1" xmlns="http://www.w3.org/2000/svg" xmlns:xlink="http://www.w3.org/1999/xlink" x="0px" y="0px"
	 viewBox="-1499.4 1301.8 453.5 226.8" style="enable-background:new -1499.4 1301.8 453.5 226.8;" xml:space="preserve">
<style type="text/css">
	.st0{fill:#F1592B;}
	.st1{fill:#727373;}
</style>
<g>
	<g>
		<path class="st0" d="M-1336.6,1420.6c-1.1,0-11.6-0.3-11.6-7.1v-70.7h31.5c17.4,0,33.8,5.8,33.8,26.7v24.2
			c0,21-16.4,26.7-33.8,26.7H-1336.6z M-1333.6,1353.6v56.2h16.9c10.8,0,19.2-4.1,19.2-17.1v-22.2c0-12.9-8.5-17-19.2-17
			L-1333.6,1353.6L-1333.6,1353.6z"/>
		<path class="st0" d="M-1262.6,1420.6c-1.1,0-11.6-0.3-11.6-7.1v-70.7h31.5c17.4,0,33.8,5.8,33.8,26.7v24.2
			c0,21-16.4,26.7-33.8,26.7H-1262.6z M-1259.6,1353.6v56.2h17c10.8,0,19.2-4.1,19.2-17.1v-22.2c0-12.9-8.5-17-19.2-17
			L-1259.6,1353.6L-1259.6,1353.6z"/>
		<path class="st0" d="M-1148.6,1398.9c0,0-1.3-6.2-1.3-11.5v-44.6c0,0,14.6,0,14.6,7.1v71.7c-16.4,0-19.8-7.8-19.8-7.8l-31.6-50.2
			c0,0,1.2,6.2,1.2,11.5v46.5c0,0-14.6,0-14.6-7.1v-71.7c8.7,0,15.9,0,19.7,6.2L-1148.6,1398.9z"/>
		<path class="st0" d="M-1097.7,1341.6c15.7,0,28.6,3,28.6,13.5c0,2.9-1.2,6.6-3.6,11c0-10.9-12.8-13.2-24.9-13.2
			c-9.5,0-16.3,2.7-16.3,10.1c0,17.9,47.4,0.3,47.4,34.8c0,16.1-13.5,24-32,24c-13.6,0-28.7-3.4-28.7-13.6c0-2.8,1.2-6.2,3.9-10.1
			c0,10.5,14.2,12.5,24.8,12.5c11.3,0,16.8-4.5,16.8-11.9c0-20.1-47.3-2.8-47.3-34.1C-1128.9,1347-1114.8,1341.6-1097.7,1341.6z"/>
	</g>
	<g>
		<path class="st1" d="M-1329,1443.6c0,4.9-3.2,7.9-10.1,7.9c-6.9,0-10.1-3-10.1-7.9v-8.9c0-4.9,3.2-7.9,10.1-7.9
			c6.8,0,10.1,3,10.1,7.9V1443.6z M-1333.4,1435.2c0-3.2-0.9-5-5.6-5c-4.6,0-5.5,1.9-5.5,5v8c0,3.2,0.9,5,5.5,5c4.7,0,5.6-1.9,5.6-5
			V1435.2z"/>
		<path class="st1" d="M-1320.6,1445.5c0,1.8,0.8,2.8,3.2,2.8c1.7,0,3.2-0.5,3.2-0.5v-14.1c0,0,4.3,0,4.3,2.2v15.7
			c0,0-1.3-0.7-3-0.7c-1.6,0-3.2,0.7-5,0.7c-3.4,0-7.1-1.2-7.1-5.5v-12.3c0,0,4.3,0.1,4.3,2.2V1445.5z"/>
		<path class="st1" d="M-1305.9,1449.2v-15.6c1,0.5,1.8,0.7,2.6,0.7c1.5,0,2.9-0.7,4.9-0.7c2.4,0,4.5,0.9,4.5,3.1
			c0,1.6-1.3,2.9-1.5,3.3c0-2.1-1.7-3-3.6-3c-1.1,0-2.1,0.3-2.5,0.4v14.1C-1301.6,1451.3-1305.9,1451.3-1305.9,1449.2z"/>
		<path class="st1" d="M-1268.1,1436.7l2.8,8.8c0.8,2.5,1.4,4.5,2.1,5.5c0,0-1.1,0.4-1.9,0.4c-3.1,0-3.9-2.7-4.7-5.2l-0.6-1.8h-8.4
			l-0.6,1.8c-0.8,2.5-1.6,5.2-4.7,5.2c-0.8,0-1.9-0.4-1.9-0.4c0.7-1,1.3-3,2.1-5.5l2.8-8.8c2.2-6.9,6-9.9,6.5-10.2
			C-1274.1,1426.8-1270.3,1429.8-1268.1,1436.7z M-1276.8,1437.5l-1,3.5h6.5l-1-3.5c-0.8-2.8-2.2-5.6-2.2-5.6
			C-1275.1,1432.7-1275.9,1434.7-1276.8,1437.5z"/>
		<path class="st1" d="M-1261.2,1433.7c0.3,0,4.3,0,4.3,2.2v15.5c0,0-4.3,0-4.3-2.2V1433.7z M-1261.1,1427.5h2.9
			c0.5,0,1.2,0.5,1.2,1v2.8h-2.9c-0.7,0-1.2-0.5-1.2-1V1427.5z"/>
		<path class="st1" d="M-1242.1,1439.5c0-1.8-0.8-2.8-3.2-2.8c-1.7,0-3.2,0.5-3.2,0.5v14.1c0,0-4.3,0-4.3-2.2v-15.7
			c0,0,1.3,0.7,3,0.7c1.6,0,3.2-0.7,5-0.7c1.9,0,3.9,0.4,5.3,1.4c0,0,1.5-1.4,5.7-1.4c3.7,0,6.8,1.9,6.8,5.8v12.1
			c0,0-4.3-0.1-4.3-2.2v-9.4c0-2.2-1.2-3.1-2.8-3.1c-1.8,0-3.5,0.8-3.6,2.3v12.3c0,0-4.3-0.1-4.3-2.2V1439.5z"/>
		<path class="st1" d="M-1213.4,1426.9c0,0,4.5,0,4.5,2.2v22.4c0,0-4.5,0-4.5-2.2V1426.9z"/>
		<path class="st1" d="M-1205.5,1439c0-3.7,2.6-5.5,7.4-5.5c4,0,6.8,1.1,6.8,3.4c0,0.9-0.4,1.9-1.3,3c0-2.1-2.4-3.1-5.2-3.1
			c-2.3,0-3.4,0.6-3.4,2c0,3.2,10.8-0.7,10.8,7.3c0,3.3-2.5,5.4-7.7,5.4c-4.2,0-7.1-1.3-7.1-3.6c0-0.9,0.4-1.9,1.6-3.1
			c0.1,2.8,3,3.5,5.5,3.5c1.4,0,3.4-0.5,3.4-2.3C-1194.7,1442.2-1205.5,1446.3-1205.5,1439z"/>
		<path class="st1" d="M-1169.2,1426.8c4.8,0,8.8,0.9,8.8,4.1c0,0.9-0.4,2-1.1,3.4c0-3.3-4-4-7.6-4c-2.9,0-5,0.8-5,3.1
			c0,5.5,14.6,0.1,14.6,10.7c0,4.9-4.1,7.4-9.8,7.4c-4.2,0-8.8-1-8.8-4.2c0-0.9,0.4-1.9,1.2-3.1c0,3.2,4.4,3.8,7.6,3.8
			c3.5,0,5.2-1.4,5.2-3.6c0-6.2-14.5-0.9-14.5-10.5C-1178.8,1428.5-1174.5,1426.8-1169.2,1426.8z"/>
		<path class="st1" d="M-1156.6,1445.6v-6.3c0-3.7,2.6-5.9,7.4-5.9c4.8,0,7,2.2,7,5.5c0,2.8-1.7,5.5-7,5.5c-1.1,0-2.1-0.2-3.1-0.6
			v1.2c0,2,1.2,3,3.7,3c3.3,0,5.5-1.4,5.6-3.4c0.7,1,1,1.9,1,2.7c0,2.4-2.8,4-6.6,4C-1153.7,1451.5-1156.6,1449.3-1156.6,1445.6z
			 M-1152.3,1440.9c0.3,0.1,1.5,0.3,2.5,0.3c2.4,0,3.2-0.8,3.2-2.1c0-1.4-0.8-2.4-2.8-2.4c-2.3,0-2.9,1.2-2.9,3.2V1440.9z"/>
		<path class="st1" d="M-1138.6,1449.2v-15.6c1,0.5,1.8,0.7,2.6,0.7c1.5,0,2.9-0.7,4.9-0.7c2.4,0,4.5,0.9,4.5,3.1
			c0,1.6-1.3,2.9-1.5,3.3c0-2.1-1.7-3-3.6-3c-1.1,0-2.1,0.3-2.5,0.4v14.1C-1134.3,1451.3-1138.6,1451.3-1138.6,1449.2z"/>
		<path class="st1" d="M-1110.6,1440.3c-0.8,7.8-7.3,11.6-7.4,11.6c-0.1,0-6.6-3.8-7.4-11.6l-0.7-6.6c0,0,4.2,0,4.5,2.1l0.7,5.1
			c0.6,4.8,2.9,6.6,2.9,6.6s2.3-1.9,2.9-6.6l0.7-5.1c0.2-2.1,4.5-2.1,4.5-2.1L-1110.6,1440.3z"/>
		<path class="st1" d="M-1107.2,1433.7c0.3,0,4.3,0,4.3,2.2v15.5c0,0-4.3,0-4.3-2.2V1433.7z M-1107.1,1427.5h2.9
			c0.5,0,1.2,0.5,1.2,1v2.8h-2.9c-0.7,0-1.2-0.5-1.2-1V1427.5z"/>
		<path class="st1" d="M-1084.9,1447.5c0,2.4-2.8,4-6.6,4c-4.7,0-7.7-2.2-7.7-5.9v-6.3c0-3.6,2.8-5.9,7.5-5.9c2.6,0,6.3,0.9,6.3,3.8
			c0,0.9-0.4,2-1.3,3.3c0-2.7-2.2-3.9-4.3-3.9c-2.4,0-4,0.7-4,3.5v4.5c0,2.4,1.2,3.4,3.9,3.4c2.9,0,5-1.4,5.1-3.4
			C-1085.2,1445.8-1084.9,1446.7-1084.9,1447.5z"/>
		<path class="st1" d="M-1082.2,1445.6v-6.3c0-3.7,2.6-5.9,7.4-5.9c4.8,0,7,2.2,7,5.5c0,2.8-1.7,5.5-7,5.5c-1.1,0-2.1-0.2-3.1-0.6
			v1.2c0,2,1.2,3,3.7,3c3.3,0,5.5-1.4,5.6-3.4c0.7,1,1,1.9,1,2.7c0,2.4-2.8,4-6.6,4C-1079.2,1451.5-1082.2,1449.3-1082.2,1445.6z
			 M-1077.9,1440.9c0.3,0.1,1.5,0.3,2.5,0.3c2.4,0,3.2-0.8,3.2-2.1c0-1.4-0.8-2.4-2.8-2.4c-2.3,0-2.9,1.2-2.9,3.2V1440.9z"/>
	</g>
	<path class="st0" d="M-1447.9,1466c0,0,94.7,38.4,382.2-4.3C-1065.7,1461.8-1289.3,1519.5-1447.9,1466z"/>
	<path class="st1" d="M-1371.6,1395.9c0-4.2-0.5-8.4-1.4-12.4c0-0.1,0-0.2-0.1-0.3c-5.7-23.7-27.1-41.3-52.5-41.3
		c-4.9,0-9.6,0.7-14.1,1.9c-0.2,0-0.4,0.1-0.7,0.2c-22.6,6.4-39.3,27.3-39.3,51.9c0,29.8,24.2,54,54,54c3.9,0,7.7-0.4,11.4-1.2
		c0.1,0,0.2,0,0.3-0.1C-1389.7,1443.3-1371.6,1421.7-1371.6,1395.9z M-1411.8,1441.5c-0.7-3.8-2.5-7.8-5.3-11.6
		c6.8-4.8,11.9-10.5,15.6-16l15.2,8.8C-1392.3,1431.6-1401.3,1438.3-1411.8,1441.5z M-1452.7,1413.7c3.7,1,7.5,2.5,11.3,4.4
		l-8.5,14.6C-1451.7,1428.3-1452.9,1421.5-1452.7,1413.7z M-1446.2,1387.8l16.8,9.8l-8.7,15c-4.4-2.3-9.2-4.1-13.9-5.3
		c0.5-3.8,1.4-7.7,2.7-11.7C-1448.6,1393.3-1447.6,1390.6-1446.2,1387.8z M-1431.9,1369.1c2.4,2.5,5.2,4.9,8.4,7.2
		c1.5,1.1,3,2.1,4.7,3.1l-7.4,12.7l-16.9-9.8C-1440.4,1377.8-1436.7,1373.2-1431.9,1369.1z M-1403.6,1405.2l-17.1-9.9l7.5-12.9
		c5,2.5,10.5,4.5,15.9,5.6c-0.7,3.3-1.7,6.6-3,9.9C-1401.1,1400.1-1402.2,1402.6-1403.6,1405.2z M-1410,1376.9l11-19.1
		c2.5,4.8,3.9,13.6,2.7,23.9C-1400.8,1380.7-1405.5,1379.1-1410,1376.9z M-1415.7,1373.8c-1.4-0.9-2.8-1.8-4.1-2.7
		c-2.6-1.9-5-3.9-7.1-5.9c5.8-4,13-7.4,21.8-9.7L-1415.7,1373.8z M-1435.8,1421.3c0.7,0.5,1.5,1,2.2,1.5c2.6,1.8,4.9,3.7,6.8,5.6
		c-4.8,2.6-10.3,4.7-16.6,6.1L-1435.8,1421.3z M-1430,1417.5c-0.8-0.6-1.7-1.2-2.6-1.8l8.7-15l16.9,9.8c-3.4,4.9-8,10-14.2,14.3
		C-1423.7,1422.3-1426.6,1419.8-1430,1417.5z M-1383,1417.2l-15.1-8.8c1.6-2.9,2.9-5.7,3.8-8.2c1.5-3.8,2.6-7.5,3.3-11.3
		c1.3,0.1,2.5,0.2,3.8,0.2c2.9,0,5.8-0.3,8.5-1c0.4,2.5,0.7,5.1,0.7,7.8C-1378,1403.6-1379.8,1410.8-1383,1417.2z M-1380.1,1381.9
		c-3,0.7-6.3,1-9.8,0.7c0.8-6.8,0.6-13.2-0.4-18.7C-1385.7,1369.1-1382.2,1375.2-1380.1,1381.9z M-1411.2,1350.6
		c-7.9,2.5-14.4,5.8-19.9,9.7c-2.7-3.7-4.3-7.3-4.8-10.8c3.3-0.7,6.7-1.1,10.2-1.1C-1420.6,1348.3-1415.8,1349.1-1411.2,1350.6z
		 M-1442,1351.3c0.7,4.3,2.7,8.7,5.9,12.9c-5.4,4.7-9.5,9.8-12.5,14.8l-16.4-9.6C-1459.6,1361.2-1451.5,1354.8-1442,1351.3z
		 M-1468.3,1375l16.5,9.6c-1.6,3.3-2.8,6.3-3.7,9c-1.4,4.2-2.3,8.4-2.9,12.5c-4.7-0.5-9.3-0.3-13.5,0.9c-0.8-3.5-1.3-7.3-1.3-11.1
		C-1473.2,1388.4-1471.4,1381.3-1468.3,1375z M-1470,1413.1c3.2-0.9,6.9-1.1,11-0.7c-0.4,7.3,0.4,13.9,2.1,19.2
		C-1462.7,1426.7-1467.2,1420.3-1470,1413.1z M-1441.9,1440.7c7.5-1.7,14-4.2,19.5-7.4c2.5,3.3,4,6.6,4.4,9.6
		c-2.5,0.4-5,0.6-7.6,0.6C-1431.3,1443.5-1436.8,1442.5-1441.9,1440.7z"/>
</g>
</svg>
