<?xml version="1.0" encoding="utf-8"?>
<!-- Generator: Adobe Illustrator 20.0.0, SVG Export Plug-In . SVG Version: 6.00 Build 0)  -->
<svg version="1.1" id="Layer_1" xmlns="http://www.w3.org/2000/svg" xmlns:xlink="http://www.w3.org/1999/xlink" x="0px" y="0px"
	 viewBox="0 0 453.5 226.8" style="enable-background:new 0 0 453.5 226.8;" xml:space="preserve">
<style type="text/css">
	.st0{display:none;fill:#203E5F;}
	.st1{display:none;opacity:0.28;fill:#FFFFFF;enable-background:new    ;}
	.st2{fill:#0E7089;}
	.st3{fill:#FFFFFF;}
	.st4{fill:#F4C946;}
	.st5{fill:#8685BE;}
	.st6{fill:#F8991D;}
	.st7{fill:url(#SVGID_1_);stroke:#000000;stroke-width:1.5;}
	.st8{fill:url(#SVGID_2_);stroke:#000000;stroke-width:1.05;}
	.st9{fill:url(#SVGID_3_);}
	.st10{fill:#666666;}
</style>
<rect x="-4301.5" y="1682.8" class="st0" width="589" height="360.1"/>
<path class="st1" d="M-4009.8,1957.6L-4009.8,1957.6l-201.7-225.5c-4.2-5.6-14.1-5.4-22.1,0.6c-5.9,4.5-9.1,10.8-8.5,16.1h-0.1
	l0.3,1.2c0,0.1,0,0.2,0.1,0.3l50.1,227.9h0.1c2.3,22.7,44.3,40.7,95.6,40.7c52.9,0,95.8-19.1,95.8-42.7
	C-4000.2,1969.5-4003.6,1963.2-4009.8,1957.6z"/>
<g>
	<g>
		<g>
			<g>
				<path class="st2" d="M217,58.5c-0.1,11.1-3.5,17.6-10,19.4c-1.1,0.3-2.2,0.6-3.4,0.7c-5.5,0.8-10-0.4-13.6-3.8
					c-3.4-3.1-5.4-7.5-6.2-13c-0.2-1.1-0.3-2.3-0.3-3.7c-0.3-7.5,0.3-12.4,1.7-14.8c1.7-2.9,3.8-4.9,6.3-6.1
					c1.5-0.6,4.4-1.4,8.9-2.2c5.6-1,10.7,3.2,15.2,12.6l-10.3,2.2c-2-2.9-4.1-4.2-6.1-4c-1,0.2-2,0.6-3,1.5
					c-2.8,2.5-3.9,5.8-3.3,10.1c0.1,0.4,0.2,0.9,0.3,1.5c1.1,5,3.6,7.4,7.7,7.1c4-0.3,6-2.7,5.9-7.2L217,58.5z"/>
			</g>
			<g>
				<path class="st2" d="M214.4,32l11.5-0.7c0.1,4.4,0.3,8.9,0.7,13.6c3.6-3.1,6.7-4.9,9.4-5.4c3.4-0.6,6.1,1.7,8.4,6.8
					c1.4,3.1,2.3,7,3,11.5c0.9,6.1,1.5,11.2,1.7,15.3l-8.9,1.3c-0.2-3.3-0.4-6.2-0.8-8.6c-1-7.2-2.5-10.7-4.4-10.4s-4,2.5-6.3,6.5
					c0.7,4.4,1.5,8.9,2.5,13.4l-8.9,1.8L214.4,32z"/>
			</g>
			<g>
				<path class="st2" d="M258.7,54.8c1.6,3.6,4.2,5.2,7.9,4.8c3.4-0.3,5.5-2.3,6.1-6.3l10.2-3c-1.1,11.3-5.6,17.5-13.4,18.6
					c-2.5,0.4-5.2,0.2-8.4-0.6c-6-2.3-9.6-8.1-10.9-17.1c-0.1-0.7-0.2-1.6-0.3-2.5c-0.9-10.5,3.3-17.3,12.7-20.4
					c9.1-1.5,15.3,4.1,18.5,16.7L258.7,54.8z M259.8,41.2c-1.2,1.8-1.6,3.9-1.5,6.2l13.4-6c-2-2.7-4.2-3.8-6.7-3.5
					C262.7,38.3,260.8,39.3,259.8,41.2z"/>
			</g>
			<g>
				<path class="st2" d="M290.5,26.4c1.6-0.6,3.2-1,4.8-1.3c7.7-1.1,13.2,2.2,16.5,9.8c1.7,4,2.9,8.6,3.6,14.1l1.5,12.8l-9.6,2
					l-0.4-1.7c-12.2,1.3-19-0.7-20.2-6.2c-0.2-0.8-0.3-1.4-0.4-1.7c-0.6-4.6,0.7-7.5,4.2-9.3c1.7-0.8,3.5-1.4,5.3-1.6
					c2.3-0.4,4.9-0.2,7.5,0.4c-0.6-4.2-1-6.5-1.1-6.7c-0.7-1.6-2.5-2.3-5.4-2.2c-2.3,0.2-4.4,2.5-6,6.9l-9.8-0.1
					C282.7,33.2,285.8,28.2,290.5,26.4z M300.1,49.4c-2.7,0.4-3.9,1.3-3.8,2.7c0.1,2,3.3,3.2,9.4,3.6l-1.2-6.3
					C302.8,49.2,301.3,49.2,300.1,49.4z"/>
			</g>
			<g>
				<path class="st2" d="M321.3,18c8.3-1.2,14.1,1.3,17.4,7.4c0.8,1.5,1.4,3,1.5,4.4c0.8,6-4,11.1-14.6,15.2l3.6,16.7l-9.6,2
					l-6.8-43.5C315.8,19,318.7,18.3,321.3,18z M330,29.7c-0.3-1.5-2.9-2.3-7.8-2.8l1.8,8.6C328.3,33.1,330.4,31.2,330,29.7z"/>
			</g>
			<g>
				<path class="st2" d="M354.3,41.2c1.6,3.6,4.2,5.2,7.9,4.8c3.4-0.3,5.5-2.3,6.1-6.3l10.2-3c-1.1,11.3-5.6,17.5-13.4,18.6
					c-2.5,0.4-5.2,0.2-8.4-0.6c-6-2.3-9.6-8.1-10.9-17.1c-0.1-0.7-0.2-1.6-0.3-2.5c-0.9-10.5,3.3-17.3,12.7-20.4
					c9.1-1.5,15.3,4.1,18.5,16.7L354.3,41.2z M355.3,27.5c-1.2,1.8-1.6,3.9-1.4,6.2l13.4-6c-2-2.7-4.2-3.8-6.7-3.5
					C358.2,24.6,356.4,25.7,355.3,27.5z"/>
			</g>
			<g>
				<path class="st2" d="M382.3,53.8c-2.1-15.1-4.2-27.1-6.3-36l10.3-2.3l0.2,3.5c4.6-3.9,9.6-6.1,15-6.7l2.3,8.8
					c-6.1,0.9-10.2,2.7-12.3,5.6c-1.5,2-1.6,6.5-0.6,13.8c0.4,3.3,1.2,7.1,2.2,11.5L382.3,53.8z"/>
			</g>
		</g>
		<g>
			<g>
				<path class="st2" d="M255.4,109.2l-0.4-34.7c8.3,1.2,13.1,3.4,14.6,6.7c0.6,1.1,0.9,2.3,1.1,3.6c0.4,2.3,0.1,4.6-0.8,7.1
					C268.6,95.8,263.7,101.6,255.4,109.2z M261.3,83.5l0.1,9.6c2.9-2.2,4.2-4.1,4.1-5.7C265.3,85.6,263.9,84.3,261.3,83.5z"/>
			</g>
			<g>
				<path class="st2" d="M273.5,93.5c-0.4-3.9,0.1-7.4,1.5-10.4c1.6-3.6,4.2-5.7,7.8-6.2c3.8-0.6,6.7,0,8.6,1.6
					c1.5,1.4,3.1,3.9,4.4,7.7c0.6,1.5,0.9,2.9,1.1,4.2c0.4,2.9,0,5.6-1.2,7.7c-1.7,3.2-4.8,5-9.2,5.6c-4,0.4-7.1-0.2-9.3-1.8
					C275.2,100.3,274,97.5,273.5,93.5z M287.6,85.3c-1.4-0.9-2.5-1.4-3.6-1.2c-1.3,0.2-2.3,1.2-3.2,3.1c-0.7,1.6-1,3.2-0.8,4.6
					c0.2,1.4,0.8,2.7,1.9,3.9c1.2,1.5,2.5,2.1,3.7,1.9c1.5-0.2,2.7-1.2,3.7-2.9c1-1.6,1.4-3.2,1.1-4.8
					C290.3,88.3,289.2,86.8,287.6,85.3z"/>
			</g>
			<g>
				<path class="st2" d="M300.5,74.7l0.7,2.8c1.9-2.5,3.7-4,5.5-4.2c2.2-0.3,4.2,1.3,6.2,4.8c1-2.9,2.7-4.6,5.1-4.8
					c1-0.2,2.1-0.1,3.3,0.3c3,0.7,5,4.9,6.1,12.7c0.4,2.9,0.7,6.3,0.8,10.1l-5,0.9c-0.2-1.1-0.3-2-0.4-3c-1.3-9.1-2.9-13.6-4.9-13.3
					c-1.9,0.3-2.5,3.5-1.6,9.4c0.4,2.3,0.8,4.9,1.5,8l-5.7,0.8c-0.2-2.5-0.4-4.8-0.6-6.8c-0.6-4.2-1.5-7.2-2.7-8.9
					c-0.6-0.9-1.3-1.4-1.9-1.3c-1.2,0.2-2.5,1.9-3.7,5.3l1.9,13.4l-5.7,0.6l-4.6-25.1L300.5,74.7z"/>
			</g>
			<g>
				<path class="st2" d="M333.6,68.7c1.1-0.4,2.2-0.7,3.3-0.8c5.3-0.7,9,1.5,11.3,6.7c1.2,2.7,2,5.9,2.5,9.6l1,8.8l-6.5,1.4
					l-0.2-1.2c-8.3,0.9-12.9-0.6-13.8-4.2c-0.1-0.6-0.2-0.9-0.3-1.2c-0.4-3.1,0.6-5.2,2.9-6.3c1.2-0.6,2.3-0.9,3.6-1.1
					c1.6-0.3,3.4-0.2,5.1,0.3c-0.4-2.9-0.7-4.4-0.7-4.6c-0.6-1.1-1.7-1.6-3.6-1.5c-1.6,0.1-3,1.6-4.1,4.8l-6.7-0.1
					C328.3,73.4,330.4,69.9,333.6,68.7z M340.2,84.5c-1.8,0.3-2.7,0.8-2.7,1.8c0.1,1.4,2.2,2.2,6.5,2.5l-0.8-4.4
					C342.1,84.3,341,84.3,340.2,84.5z"/>
			</g>
			<g>
				<path class="st2" d="M353.2,63.4c0.4-0.1,0.7-0.1,1,0c1.5,0.3,2.5,1,3.2,2.3c0.2,0.4,0.3,0.7,0.4,1.2c0.1,0.9-0.1,1.7-0.6,2.7
					c-0.8,1.4-1.9,2.1-3.2,2.2c-1.4,0.1-2.5-0.4-3.5-1.6c-0.4-0.6-0.7-1.1-0.8-1.7c-0.1-0.8,0-1.6,0.4-2.5
					C351.1,64.4,352.1,63.6,353.2,63.4z M358.7,73.7c0.6,6.3,1.2,12.7,1.6,18.8l-6.5,1.5c-0.2-2.7-0.4-5.4-0.8-8.1
					c-0.4-3.4-1.2-6.8-2-10.3L358.7,73.7z"/>
			</g>
			<g>
				<path class="st2" d="M364.6,64.6l0.8,2.8c3-2.8,5.6-4.4,7.7-4.6c2-0.3,3.6,0.6,4.8,2.3c1.9,2.8,3.3,7.7,4.2,14.6
					c0.4,2.5,0.6,5.2,0.9,8.3l-6.8,1.2c0-3.7-0.2-6.9-0.6-9.4c-0.4-3.1-1.2-5.3-2.2-6.5c-0.6-0.8-1.3-1.2-2-1.1
					c-1.3,0.2-2.7,1.9-4.1,5.3l1.9,13.4l-6.3,0.7l-4.6-25.1L364.6,64.6z"/>
			</g>
			<g>
				<path class="st2" d="M383.7,87l2-7.3c4.2,1.9,7.4,2.7,9.4,2.5c0.7-0.1,1.5-0.4,2.1-1c0.7-0.6,1-1.3,0.9-2
					c-0.2-1.1-1.7-1.7-4.6-2.1c-4.2-0.4-7.4-2.3-9.3-5.3c-0.6-1-1-2-1.2-2.9c-0.3-1.9,0.4-3.8,2.3-5.6c1.5-1.5,4-2.5,7.4-3
					c2.3-0.4,5.3-0.4,8.6-0.3l-1.3,6.8c-2.7-0.7-4.8-1-6.2-0.8c-0.7,0.1-1.5,0.4-2,0.8c-0.7,0.6-1.1,1.1-1,1.7
					c0.1,0.6,0.7,1.2,1.9,1.7c0.8,0.4,2.3,0.8,4.6,1.4c1.9,0.4,3.4,1,4.2,1.5c1.4,0.9,2.2,2.2,2.5,3.9c0.6,2.8-0.4,5.6-2.9,8.4
					c-1,1.2-2.7,1.9-5,2.3C393.1,88.4,388.9,88.1,383.7,87z"/>
			</g>
		</g>
		<g>
			<g>
				<path class="st2" d="M167.5,46.9l0.3,3l-1.6,0.3l-0.8-7.7l2.3-0.3c1.1-0.1,1.8,0,2.3,0.4c0.6,0.4,0.8,0.9,0.9,1.6
					c0.1,0.4,0,0.9-0.3,1.3c-0.2,0.4-0.6,0.7-1,0.9c1.4,1.6,2.2,2.7,2.7,3.2l-1.8,0.2l-2.2-2.8H167.5z M167.4,45.6l0.6-0.1
					c0.6-0.1,0.9-0.2,1.1-0.4c0.3-0.2,0.4-0.4,0.3-0.8c0-0.4-0.2-0.6-0.4-0.7c-0.3-0.1-0.6-0.2-1.2-0.1l-0.4,0.1L167.4,45.6z"/>
			</g>
			<path class="st2" d="M168.1,54.4c-4.6,0-8.2-3.6-8.2-8.2s3.6-8.2,8.2-8.2s8.2,3.6,8.2,8.2C176.3,50.7,172.7,54.4,168.1,54.4z
				 M168.1,39.8c-3.6,0-6.3,2.8-6.3,6.3s2.8,6.3,6.3,6.3s6.3-2.8,6.3-6.3C174.5,42.6,171.7,39.8,168.1,39.8z"/>
		</g>
		<g>
			<g>
				<path class="st3" d="M102.6,131.5c-12.5-6.7-14.6-26.8-4.9-37.8c3.7-4.2,9.4-7,15.7-7.5c14.6-1.1,24.5,10.5,25.6,23.2
					c0.3,3.2,1,8.4-0.7,11c0.2-0.3-0.4,0.4-0.7,0.7c-1.5,0.6-3.6-1.1-5.2-1.4c-7.9-1.9-16.5-0.4-22.8,4.2
					C106.8,126.1,104.8,129,102.6,131.5z M119.1,114.1c1-1.5,1.4-4.8,0-6.1C113,105,113.1,117.3,119.1,114.1z"/>
				<path d="M66.5,90c-1.8,2.7-3.7,6.9-2.3,11.3c-4.2-0.4-2.7-8.6-1.6-12.2c0.2-0.2,0.6-0.2,0.7-0.4C65,88.7,65.5,88.9,66.5,90z"/>
				<path d="M119.1,108.1c1.4,1.4,1,4.6,0,6.1C113.1,117.3,113,105,119.1,108.1z"/>
				<path class="st4" d="M89.3,110.9c0.9,2,1.3,4.6,1.9,6.8c-6.1,4.6-13.4,9.2-19.2,13.4c-1.4-2.1,0.4-5.6,0-7.5
					c0.7-0.3,0.9-1.3,1.2-1.9C75.6,116.1,80.7,109.8,89.3,110.9z"/>
				<path class="st3" d="M98.9,132.2c-4.4,0.6-4.4,5.6-6.3,8.4c-5.8,0.1-9.2,2.5-12,5.6c-2.1-1.4-4.9-3.6-6.3-6.1
					c-0.8-1.5-2.2-4.4-1.9-5.8c0.3-1.3,3.6-3.6,5.2-4.9c3.6-3.1,9.3-5.8,13.1-8.9c0.3-0.3,0.4-0.6,1.2-0.4
					C92.9,125.4,95.5,129.2,98.9,132.2z M89.7,133c1.8-2.2-0.2-6.2-3.6-5.2C83.9,129.9,86.2,135.3,89.7,133z"/>
				<path d="M86.2,127.8c3.3-1,5.4,2.9,3.6,5.2C86.2,135.3,83.9,129.9,86.2,127.8z"/>
				<path class="st3" d="M108.1,145.6c0.9,1.2-0.2,5.4-0.7,7.3c-2.7-1-4.8-2.7-7-4C101.9,146.9,106.4,147.7,108.1,145.6z"/>
				<path class="st4" d="M91.2,181c1.8,0.7,5.8,1.6,7,0.3C97.1,185.3,91.2,187.1,91.2,181z"/>
				<path d="M110.9,193c-1.4,0.6-3.1-1.5-2.5-2.8C109.4,190,110.8,191.4,110.9,193z"/>
				<path class="st5" d="M100,191.1c-0.9,1.5-3.2,1.5-5.2,1.9C96.3,191.6,98.1,189.5,100,191.1z"/>
				<path class="st5" d="M103.3,193.2c-1,1.5-3.1,1.9-4,3.6C99.3,195.1,101.2,190.9,103.3,193.2z"/>
				<path class="st5" d="M105.4,194.7c0.4,0.2,0.7,0.4,1.2,0.7c-0.6,0.6-0.6,1.9-1.6,2.1C105,196.4,105.2,195.5,105.4,194.7z"/>
				<path class="st5" d="M128.9,201.2c2.3,2.2,6.9-1.6,9.6,1.2c-1.6-0.4-4.8,0.4-6.1,0.4c0.6,2.7,3.3,3.6,2.8,7.5
					c-1.9-2-3.6-4.2-5.8-5.8c-1.7,0.1-2.5,1.2-3.3,2.1c-0.4-1.4,1-2.7,1.6-3.7c0.4,0,0.3,0.6,0.9,0.4
					C128.8,202.2,128.6,202,128.9,201.2z"/>
				<path class="st4" d="M122.4,161.4c10.5-3.9,16.9-13.4,24.4-19.5c1,1.1-0.1,4.2,1.2,5.2c2.2-0.6,1.4-4.8,0.7-7
					c-1.1-4.2-4.2-8.4-5.4-11.5c2.5-3.6,4.4-7.5,7.5-10.3c-1.5-18-6.9-37.2-12.7-53.8c9,1.1,18.6,4,25.6,8.4c3.1,2,7.7,4.4,6.3,9.8
					c-1,4.1-4,8.2-5.8,12.7c-2.3,5.5-4,14.1-2.8,20.4c1.6,0.7,3.3,0.3,4.8-0.3c3.9-1.5,7.5-3.6,11.3-5.2c3.8-1.6,7.5-3.6,11.3-5.6
					c1.9,1.4,2.9,3.3,4.2,5.6c1.1,2,3.1,4.8,2.8,7c-0.1,1.2-2.3,3.7-3.6,5.6c-2,3-5.6,8-2.5,12.2c1.7-0.3,2.1-1.8,3.1-2.8
					c1.5,0.3,3.4,1.2,4.4,1.2c-1,5.7-4,9.6-5.2,15.3c-1.6,0.6-3.1,0.8-4.4,2.1c0,2.5,1.9,3.3,2.5,5.2c-2.9,4.4-6.5,8.2-9.4,12.7
					c-7.1-4.8-16.1-7.5-25.1-10.3c-0.9-1.6-1.5-3.6-1.6-5.4c2.7-1.5,5.6-2.7,8-4.4c-3.5-4.2-6.9-8.4-8.4-14.6
					c1.3-1.8,3.5-2.7,4.4-4.8c-2.8-2.3-5.9,2.9-8.6,4.2c2.8,4.8,5.8,9.4,8.9,13.8c-2.2,1.1-4.4,1.9-6.5,3.1
					c0.4,3.5,0.6,7.3,1.2,10.5c8.4,1.1,14.9,4.2,21.1,7.5c-8.8,1.5-20.7,0.8-28.7-2.3c-1.5,1.3-1.9,3.6-2.8,5.6
					c-2.9,0.4-5.3-0.6-6.8-0.9c-2.2,0.9-4.6,2.1-7.3,2.3c-2,0.2-3.8-1.1-5.4-0.4c3.9,3.3,6.7,9.4,5.8,15.3c1.4,0.2,2.2-2,2.1-4
					c2.2-0.9,4.2-2.1,6.5-2.8c-0.9,2.2-2.3,3.7-4,5.2c1.5,1.6,5.2,1.1,7.3,2.1c-2.2,0.8-5.5,1.8-8,0.9c-0.9,1.3,0.4,2.7,0.3,4.8
					c-1.5-1.3-2.9-2.7-3.6-4.9c-3.2,1.5-5.8,5-9.8,5.8c-3,0.6-8.1,0.4-10.5-0.7c-1.7-0.7-8.6-5.4-8.9-8c-0.3-2,0.2-4.6,0.7-6.5
					c1.5-5.7,5.8-11.1,8.4-15c-3.3,0.4-4.6,4.1-6.1,6.3c-1.7,2.3-4.2,4.6-4.4,7.5c-3.5-2.5-6.5-5.6-7.7-10.3
					c6.2-2.5,14.4-4.9,22.3-5.4c1.8-0.1,3.8,0.4,4.8-1.2c-3.6-2.2-10.8-0.3-17.6-0.7c-8-0.4-13.4-3.6-16.2-9.8c-1-0.4-1.8-1-2.8-1.4
					c1.5-4.6,4.6-7.4,10.5-7.5c-1.1,5.1-0.6,12.1,3.3,13.8c1.5-1.4,1.5-4.2,3.3-5.4c3.2,0.6,5.6,2,7.7,3.6c-0.1,1.5-1.7,1.4-1.9,2.8
					c2.7,1.6,6.3-1.9,8.4-3.3c1.6-1,3.6-1.4,4.2-3.1c0-2.7-1.1-4.9-1.9-7.5c-0.6-1.9-1.7-4.4-1.6-6.3c0.1-2.3,2.5-4.2,2.3-5.8
					c-0.2-3-4.4-3.6-7.5-2.5c5.9-7.1,19.9-8.8,30.8-4.9c4.1-11.7-0.2-26.1-7.5-32.7c-3.7-3.3-8.6-6.5-14.1-7
					C102.4,82.4,90,93,89.4,109.6c-12-1.5-17.1,7.5-19.7,18.3c-1,0.1-2.2-1.5-3.3-2.5c-7.1-7.5-13.4-18.1-14.3-32
					C50.5,68.1,65.4,53.7,77,41.1c0.6-3.5,0.6-5.7-0.3-8.4c2.1,0.9,3.2,4.8,5.6,6.1c5.2-6.1,12-10.5,19.9-13.8
					c0.6,0.6-0.6,1.1-0.9,1.6c-1.3,1.9-2.7,4.4-3.7,6.5c2.5,0.4,5.2-1.4,8.4-2.1c7.7-1.7,21.2-2.7,27.2,1.4
					c-4.4,0.7-7.5,2.7-9.6,5.6c8.4,1.4,15.9,5,20.2,11c-3.6-0.7-7.2,0.1-9.4,1.4c8.3,2.3,15,7.7,18.6,14.1c-5.5-0.9-13.8-5-18.8-1.2
					c0.9,4.2,3.1,8.1,4.8,12.2c3.3,8.4,5.4,16.7,7.5,27c1.1,5.2,2.3,9.8,1.2,15.9c-1.8,2.1-7.9,5.4-8.2,9.2
					c-0.2,3.1,3.2,4.8,4.2,7.7C138.5,146,130.5,153.9,122.4,161.4z M107.8,66.1c-3.6-1.5-6.9-3.4-11-1.4c-0.2,1.3,0.4,3.4,0.7,4.9
					c3.7-2.1,9.3-2.1,12.5,0.7C110.7,68.2,108.2,67.7,107.8,66.1z M63.2,88.5c-0.1,0.4-0.6,0.3-0.7,0.4c-1.1,3.6-2.5,11.9,1.6,12.2
					c-1.4-4.4,0.6-8.6,2.3-11.3C65.5,88.9,65,88.7,63.2,88.5z M108.3,190.2c-0.4,1.3,1.2,3.4,2.5,2.8
					C110.8,191.4,109.4,190,108.3,190.2z"/>
				<path d="M132.4,182c3-0.8,4.9-2.7,7.7-3.7c0.7,3-1.5,4.8-2.1,7.3c1.5,1.5,4.2,1.5,6.1,2.5c-1.5,2.7-5.6,2.9-8.6,4
					c-0.3,2.2,0.1,4.9-1.2,6.1c-2.5-1.6-3.6-4.8-6.8-5.6c-1,2.7,1.9,5.4,2.8,7.7c4.4-0.7,10-0.7,11,3.7c0.4,0.8,0.1,1.3-0.4,0.7
					c-1.6-0.4-3.4-1-5.4-0.4c0.6,2.8,2.8,6.1,1.2,9.2c-3.7-1-4.1-5.3-7.3-6.8c-2.1,0.7-3.1,3.8-5.2,3.7c-2-3.1,1.1-6.9,2.1-9.4
					c-1.1-1.6-2.3-3.2-4-4.4c-3.3,0.6-7.5,0.8-10.8,0.3c-0.9-0.2-2.1-0.9-2.8-0.7c-2.5,0.6-1.9,4.8-4.2,5.8
					c-2.1-0.4-1.6-3.2-1.9-5.4c-1.8,0.6-3.6,3.1-5.6,4.2c-1.2-1.7,0-4.1,0.4-5.6c-1.6,0.2-4.2,0.6-5.6,0.3c0.3-2.9,2.3-4,3.3-6.3
					c1.3,0,2.5,0,3.7,0c0.4-0.7-0.8-2-1.2-2.8c-1.7,0.9-4.2,1.9-6.1,0.7c-1.3-2.7-3.2-5.8-2.3-9.8c2.3,1,2.8,3.7,6.3,3.6
					c-0.3-1.7-2.1-3-3.3-4.4c-2-2.5-3.8-4.9-4-9.6c3.2-0.8,6.2-1.8,9.4-2.5c-7.4-1.5-12.7-5-15.9-11c-1.1,0.2-2.5,0.7-3.6,0.3
					c0.4-4.6-3-6.2-5.2-9.4c-1.5-2.3-2.3-4.6-3.1-8c-0.7-0.6-1.7,0.9-2.1-0.4c-0.1-1.5,1.4-0.9,1.6-1.6c0.4-2.3-2.2-3.5-4-4.9
					c-10.1-8.4-16.5-23.1-15.5-42.5c1-17.1,10.5-30.6,19.2-40.6c1.4-1.5,3.2-2.9,4-4.4c2.3-4.8,0.6-11.9,1.2-16.2
					c2.7,2.5,4.6,5.7,7,8.4c7.8-4.6,15.1-10.8,26.3-11.3c-0.4,2.3-3.5,3.8-4.8,6.1c7.5-0.4,15.7-1.1,23-0.4c5,0.4,9.9,2.3,11.3,6.3
					c-2.2,0.7-5.1-0.2-6.8,1.6c7.4,4.4,14.8,8.8,18.3,17.1c-1.4,0.1-2.9-0.8-4.9-1.2c5.5,4.2,10.9,8.6,14.1,15.3
					c5.4,3.2,10.7,6.5,14.6,11.3c-1.3,12.4-8.8,22.4-7.5,34.3c5.1-2.5,12.2-4.8,16.9-7.5c1-0.6,6.3-4.2,8-4c1.9,0.3,4.2,4.1,5.4,6.3
					c1.5,2.8,2.3,5.9,2.8,8.6c0.7,4.2-4.4,7.7-4.8,12.2c1.6,1.1,4.4,0.9,6.1,2.1c0.7,0.6,2.5,2.3,2.5,3.1c0.2,1.2-1.6,2.9-2.3,4.4
					c-2,4.4-4.1,10.2-6.3,13.4c-0.6-0.2-1.6-0.1-2.3,0.3c0.6,1.2,2.3,3.3,3.7,4.4c-4.2,5.1-8.6,10.1-13.1,15
					c-10.7,2.5-24.2,0.8-35.2-2.1c-0.8,1.7-1.2,4-1.4,6.3c-4.9-3-10.7-0.8-16.2,0.4c0,1.6,0.7,2.5,1.2,3.7c1-0.7,1.6-2,3.1-2.3
					C134.2,178.6,132.8,180.5,132.4,182z M143.7,135.3c-1-2.9-4.4-4.6-4.2-7.7c0.3-3.7,6.3-7,8.2-9.2c1.1-6.1-0.1-10.8-1.2-15.9
					c-2.1-10.2-4.2-18.6-7.5-27c-1.5-4.1-3.7-7.9-4.8-12.2c5-3.8,13.4,0.3,18.8,1.2c-3.6-6.5-10.2-11.7-18.6-14.1
					c2.2-1.4,5.8-2.2,9.4-1.4c-4.4-6-11.9-9.6-20.2-11c2.1-2.9,5.3-4.9,9.6-5.6c-6.1-4.2-19.6-3.2-27.2-1.4
					c-3.3,0.7-5.9,2.5-8.4,2.1c1-2.2,2.5-4.6,3.7-6.5c0.4-0.6,1.5-1,0.9-1.6c-7.9,3.3-14.7,7.7-19.9,13.8c-2.5-1.3-3.6-5.2-5.6-6.1
					c0.7,2.7,0.8,5,0.3,8.4C65.4,53.6,50.4,67.9,52,93.2c0.9,13.8,7.2,24.3,14.3,32c1.1,1.2,2.3,2.7,3.3,2.5
					c2.7-10.8,7.7-19.7,19.7-18.3c0.6-16.7,13-27.2,28.1-25.6c5.6,0.6,10.4,3.7,14.1,7c7.4,6.5,11.5,20.9,7.5,32.7
					c-10.8-3.8-24.9-2.2-30.8,4.9c3-1,7.4-0.4,7.5,2.5c0.1,1.7-2.3,3.6-2.3,5.8c-0.1,1.9,1.1,4.4,1.6,6.3c0.7,2.5,1.8,4.8,1.9,7.5
					c-0.6,1.7-2.5,2-4.2,3.1c-2.2,1.4-5.7,4.9-8.4,3.3c0.2-1.5,1.8-1.4,1.9-2.8c-2.2-1.5-4.6-2.9-7.7-3.6c-1.7,1.2-1.7,4.1-3.3,5.4
					c-3.8-1.7-4.4-8.8-3.3-13.8c-5.8,0-8.9,2.9-10.4,7.5c1,0.4,1.8,1,2.8,1.4c2.8,6.2,8.1,9.4,16.2,9.8c6.8,0.4,13.9-1.5,17.6,0.7
					c-0.9,1.5-2.9,1.1-4.8,1.2c-7.9,0.4-16.2,2.8-22.3,5.4c1.2,4.8,4.2,7.7,7.7,10.3c0.3-2.8,2.7-5.1,4.4-7.5
					c1.6-2.3,2.8-5.9,6.1-6.3c-2.7,3.9-6.9,9.3-8.4,15c-0.6,1.9-1,4.6-0.7,6.5c0.4,2.7,7.2,7.2,8.9,8c2.5,1.1,7.5,1.4,10.5,0.7
					c4.1-0.9,6.7-4.4,9.8-5.8c0.6,2.3,2,3.6,3.6,4.9c0.2-1.9-1.2-3.4-0.3-4.8c2.5,0.9,5.8-0.1,8-0.9c-2.1-1-5.8-0.4-7.3-2.1
					c1.6-1.5,3.1-3,4-5.2c-2.3,0.7-4.4,1.9-6.5,2.8c0.1,2-0.8,4.2-2.1,4c0.7-5.8-1.9-12-5.8-15.3c1.6-0.6,3.4,0.6,5.4,0.4
					c2.7-0.2,5.1-1.5,7.3-2.3c1.5,0.4,3.9,1.4,6.8,0.9c0.8-1.9,1.3-4.4,2.8-5.6c8,3.2,19.9,3.9,28.7,2.3c-6.2-3.4-12.7-6.5-21.1-7.5
					c-0.6-3.3-0.7-7.1-1.2-10.5c2.1-1.1,4.4-2,6.5-3.1c-3.1-4.4-6.2-9-8.9-13.8c2.8-1.3,5.9-6.5,8.6-4.2c-1,2.1-3.2,2.9-4.4,4.8
					c1.5,6.2,5,10.4,8.4,14.6c-2.3,1.8-5.3,3-8,4.4c0.1,1.7,0.8,3.8,1.6,5.4c9,2.8,18,5.6,25.1,10.3c2.9-4.4,6.5-8.2,9.4-12.7
					c-0.7-1.9-2.5-2.5-2.5-5.2c1.4-1.3,2.8-1.5,4.4-2.1c1.2-5.6,4.1-9.4,5.2-15.3c-1.1,0-2.9-0.9-4.4-1.2c-0.9,1-1.4,2.5-3.1,2.8
					c-3-4.2,0.6-9.2,2.5-12.2c1.3-1.9,3.4-4.4,3.6-5.6c0.3-2.2-1.7-5-2.8-7c-1.3-2.3-2.3-4.2-4.2-5.6c-3.6,2.1-7.5,4-11.3,5.6
					c-3.8,1.6-7.3,3.7-11.3,5.2c-1.4,0.6-3,1-4.8,0.3c-1.2-6.3,0.6-15,2.8-20.4c1.8-4.4,4.9-8.6,5.8-12.7c1.3-5.5-3.2-7.9-6.3-9.8
					c-7.1-4.4-16.5-7.4-25.6-8.4c5.7,16.5,11.2,35.8,12.7,53.8c-3.2,2.8-5.1,6.8-7.5,10.3c1.2,3,4.2,7.3,5.4,11.5
					c0.6,2.3,1.5,6.5-0.7,7c-1.3-0.8-0.2-4.1-1.2-5.2c-7.5,6.1-13.8,15.5-24.4,19.5C130.8,153.9,138.7,146,143.7,135.3z M109.7,124
					c6.3-4.6,14.8-6.1,22.8-4.2c1.5,0.4,3.6,2.1,5.2,1.4c0.4-0.4,0.9-1,0.7-0.7c1.7-2.5,1-7.8,0.7-11c-1.1-12.7-11-24.4-25.6-23.2
					c-6.3,0.4-12,3.3-15.7,7.5c-9.6,10.9-7.5,31.1,4.9,37.7C104.8,129,106.8,126.1,109.7,124z M73,121.7c-0.3,0.6-2.5,7.4-1.2,9.4
					c5.7-4.2,13.1-8.8,19.2-13.4c-0.6-2.3-1-4.8-1.9-6.8C80.7,109.8,75.6,116.1,73,121.7z M91.9,120c-0.7,0-0.9,0.3-1.2,0.4
					c-3.8,3.1-9.6,5.8-13.1,8.9c-1.5,1.3-4.9,3.6-5.2,4.9c-0.3,1.5,1,4.4,1.9,5.8c1.4,2.5,4.2,4.8,6.3,6.1c2.7-3.1,6.2-5.6,12-5.6
					c2-2.9,1.9-7.9,6.3-8.4C95.5,129.2,92.9,125.4,91.9,120z M110.4,135.1c1.6,2.5,1.8,6.8-0.3,8.9c0.4,3.3-0.6,7.7-1.4,9.8
					c2-1.6,4.1-1.7,5.2-3.6c2.5-4.2-1.8-9.6-2.1-12.7c-0.4-3.5,2.3-4.2,2.3-7c-2.8-1.3-7.7-0.7-8.9,1.6c-0.6,0.7,0.4,1.9,0,3.1
					c-2.5-0.2-6.2-0.7-8.6,0.7c-2.3,3.5-4.1,10.8-1.6,15.5c1.4-1,1.5-2,2.8-3.1c1.9-1.5,3.9-1.5,6.5-2.3c2.1-0.7,5.4-3.6,5.8-4.8
					c1.4-2.8-0.7-4-1.4-6.1c-0.9,0.1-0.8,1-2.1,0.7c0.2-3.2,1.9-4.8,4.9-5.2c0.4,0.4,0.6,1.2,0.4,2.1c-0.7,0-0.6-1-1.4-0.9
					c-0.4,0.7-2.3,1.3-1.6,2.3C109.2,134,110.4,134.5,110.4,135.1z M145.4,140.4c0.2-0.6,1.9-1.3,0.7-1.9
					C145.9,139.1,144.9,140.1,145.4,140.4z M100.4,148.9c2.3,1.4,4.4,3,7,4c0.6-1.9,1.6-6.1,0.7-7.3
					C106.4,147.7,101.9,146.9,100.4,148.9z M98.1,181.3c-1.3,1.5-5.2,0.6-7-0.3C91.2,187.1,97.1,185.3,98.1,181.3z M94.9,193
					c2-0.4,4.2-0.4,5.2-1.9C98.1,189.5,96.3,191.6,94.9,193z M99.3,196.8c0.9-1.6,3-2,4-3.6C101.2,190.9,99.3,195.1,99.3,196.8z
					 M105,197.5c1-0.2,1.1-1.5,1.6-2.1c-0.4-0.2-0.7-0.6-1.2-0.7C105.2,195.5,105,196.4,105,197.5z M126.1,197.7
					c-0.8-0.6-0.6-2.2-1.4-2.8c-0.1,0.4-0.6,0.3-0.7,0.4C124.4,196.2,125.5,197.7,126.1,197.7z M128.7,203.3
					c-0.6,0.2-0.4-0.4-0.9-0.4c-0.6,1-2.1,2.5-1.6,3.7c0.8-0.9,1.5-2,3.3-2.1c2.2,1.7,3.9,3.9,5.8,5.8c0.4-3.9-2.2-4.8-2.8-7.5
					c1.5,0,4.4-0.9,6.1-0.4c-2.7-2.8-7.3,1-9.6-1.2C128.6,202,128.8,202.2,128.7,203.3z"/>
				<path class="st6" d="M109,134.3c-0.6-1.1,1.3-1.5,1.6-2.3c0.8-0.1,0.6,0.9,1.4,0.9c0.1-0.9,0-1.7-0.4-2.1c-3,0.4-4.8,2-4.9,5.2
					c1.3,0.4,1.3-0.6,2.1-0.7c0.6,2.1,2.8,3.3,1.4,6.1c-0.6,1.1-3.8,4-5.8,4.8c-2.7,0.9-4.6,0.8-6.5,2.3c-1.3,1.1-1.5,2.1-2.8,3.1
					c-2.5-4.6-0.7-12.1,1.6-15.5c2.5-1.5,6.1-0.9,8.6-0.7c0.4-1.1-0.6-2.3,0-3.1c1.3-2.3,6.1-2.9,8.9-1.6c-0.1,2.7-2.7,3.6-2.3,7
					c0.4,3.1,4.6,8.4,2.1,12.7c-1.1,1.8-3.1,1.8-5.2,3.6c0.7-2.1,1.8-6.5,1.4-9.8c2.1-2.1,1.8-6.5,0.3-8.9
					C110.4,134.5,109.2,134,109,134.3z"/>
				<path class="st3" d="M146,138.6c1.2,0.6-0.6,1.3-0.7,1.9C144.9,140.1,145.9,139.1,146,138.6z"/>
				<path class="st5" d="M124,195.4c0.2-0.2,0.6-0.2,0.7-0.4c0.7,0.6,0.6,2.2,1.4,2.8C125.5,197.7,124.4,196.2,124,195.4z"/>
				<path d="M109.9,70.3c-3.2-2.7-8.8-2.8-12.5-0.7c-0.3-1.5-0.9-3.6-0.7-4.9c4.1-1.9,7.5,0,11,1.4
					C108.2,67.7,110.7,68.2,109.9,70.3z"/>
			</g>
			<g>
				
					<linearGradient id="SVGID_1_" gradientUnits="userSpaceOnUse" x1="117.3454" y1="-1332.3586" x2="117.3454" y2="-1314.2656" gradientTransform="matrix(1 0 0 -1 0 -1211.2201)">
					<stop  offset="6.179800e-02" style="stop-color:#FBF7BF"/>
					<stop  offset="0.8034" style="stop-color:#086DA3"/>
				</linearGradient>
				<circle class="st7" cx="117.3" cy="112.1" r="9"/>
				<circle cx="117.3" cy="112.1" r="3.7"/>
				<circle class="st3" cx="120.3" cy="108.8" r="2.3"/>
			</g>
			<g>
				
					<linearGradient id="SVGID_2_" gradientUnits="userSpaceOnUse" x1="88.3055" y1="-1348.5416" x2="88.3055" y2="-1335.876" gradientTransform="matrix(1 0 0 -1 0 -1211.2201)">
					<stop  offset="6.179800e-02" style="stop-color:#FBF7BF"/>
					<stop  offset="0.8034" style="stop-color:#086DA3"/>
				</linearGradient>
				<circle class="st8" cx="88.3" cy="131" r="6.3"/>
				<circle cx="88.3" cy="131" r="2.7"/>
				<circle class="st3" cx="90.4" cy="128.7" r="1.6"/>
			</g>
			
				<radialGradient id="SVGID_3_" cx="98.0609" cy="447.923" r="13.1425" gradientTransform="matrix(0.8821 0 0 0.8821 26.7504 -212.3669)" gradientUnits="userSpaceOnUse">
				<stop  offset="0.2584" style="stop-color:#FBF7BF"/>
				<stop  offset="0.9536" style="stop-color:#F5CA46"/>
			</radialGradient>
			<ellipse class="st9" cx="113.2" cy="182.8" rx="11.9" ry="11.3"/>
			<path d="M108.3,190.2c-0.7,0-0.3,1.2,0.3,1.7c0.6,0.6,1.9,1.5,2.3,1.1C111.3,192.5,109.5,190.2,108.3,190.2z"/>
		</g>
	</g>
	<g>
		<path class="st10" d="M307.5,108.1l0.1,0.9l-3.9,0.4l0.3,2.7l3.2-0.3l0.1,0.9l-3.2,0.3l0.3,2.8l3.9-0.4l0.1,0.9l-5,0.4l-0.8-8.1
			L307.5,108.1L307.5,108.1z"/>
		<path class="st10" d="M312.6,111c-0.1,0.1-0.1,0.1-0.2,0.1s-0.1,0-0.2-0.1c-0.1-0.1-0.2-0.1-0.3-0.1c-0.1-0.1-0.3-0.1-0.4-0.1
			c-0.1-0.1-0.3-0.1-0.5,0c-0.2,0-0.3,0-0.4,0.1s-0.3,0.1-0.4,0.3c-0.1,0.1-0.2,0.2-0.3,0.3c-0.1,0.1-0.1,0.2-0.1,0.3
			c0,0.1,0.1,0.3,0.2,0.4c0.1,0.1,0.2,0.2,0.3,0.3c0.1,0.1,0.3,0.1,0.5,0.1c0.2,0.1,0.4,0.1,0.6,0.1s0.4,0.1,0.6,0.1
			c0.2,0.1,0.3,0.2,0.5,0.3c0.1,0.1,0.3,0.3,0.4,0.4c0.1,0.2,0.2,0.4,0.2,0.6c0,0.3,0,0.5-0.1,0.8c-0.1,0.3-0.2,0.4-0.4,0.6
			c-0.2,0.2-0.4,0.4-0.6,0.4c-0.3,0.1-0.6,0.2-1,0.2c-0.4,0.1-0.8,0-1.1-0.1c-0.3-0.1-0.6-0.3-0.9-0.4l0.2-0.4
			c0-0.1,0.1-0.1,0.1-0.1c0.1-0.1,0.1-0.1,0.2-0.1c0.1,0,0.1,0,0.2,0.1c0.1,0.1,0.2,0.1,0.3,0.2c0.1,0.1,0.3,0.1,0.4,0.1
			c0.1,0.1,0.3,0.1,0.6,0c0.2,0,0.4-0.1,0.5-0.1s0.3-0.1,0.4-0.3c0.1-0.1,0.2-0.2,0.2-0.3c0.1-0.1,0.1-0.3,0-0.4
			c0-0.2-0.1-0.3-0.2-0.4c-0.1-0.1-0.2-0.2-0.3-0.3c-0.1-0.1-0.3-0.1-0.5-0.1c-0.2,0-0.4-0.1-0.6-0.1c-0.2-0.1-0.4-0.1-0.6-0.1
			s-0.3-0.2-0.5-0.3c-0.1-0.1-0.3-0.3-0.4-0.4c-0.1-0.2-0.2-0.4-0.2-0.6c0-0.2,0-0.4,0.1-0.6c0.1-0.2,0.2-0.4,0.3-0.6
			c0.2-0.1,0.4-0.3,0.6-0.4c0.3-0.1,0.6-0.2,0.9-0.2c0.4-0.1,0.7,0,1,0.1c0.3,0.1,0.6,0.2,0.8,0.4L312.6,111z"/>
		<path class="st10" d="M316.4,115.6c-0.4,0.1-0.8-0.1-1.1-0.3c-0.3-0.3-0.4-0.6-0.5-1l-0.3-3.6l-0.7,0.1c-0.1,0-0.1,0-0.1-0.1
			c-0.1-0.1-0.1-0.1-0.1-0.2l-0.1-0.4l1-0.2l0.1-1.8c0-0.1,0.1-0.1,0.1-0.1c0.1-0.1,0.1-0.1,0.2-0.1l0.5-0.1l0.2,2l1.6-0.1l0.1,0.8
			l-1.6,0.1l0.3,3.5c0,0.3,0.1,0.4,0.3,0.6c0.1,0.1,0.3,0.2,0.4,0.1c0.1,0,0.2,0,0.3-0.1c0.1-0.1,0.1-0.1,0.2-0.1
			c0.1-0.1,0.1-0.1,0.1-0.1c0.1,0,0.1-0.1,0.1-0.1s0.1,0.1,0.1,0.1l0.4,0.5c-0.2,0.2-0.4,0.4-0.6,0.4
			C316.9,115.5,316.7,115.6,316.4,115.6z"/>
		<path class="st10" d="M318.5,114.7c0-0.1,0-0.2,0.1-0.3c0.1-0.1,0.1-0.2,0.1-0.3c0.1-0.1,0.1-0.1,0.3-0.1c0.1-0.1,0.2-0.1,0.3-0.1
			c0.1,0,0.2,0,0.3,0.1c0.1,0.1,0.2,0.1,0.3,0.1c0.1,0.1,0.1,0.1,0.1,0.3c0.1,0.1,0.1,0.2,0.1,0.3c0,0.1,0,0.2-0.1,0.3
			c-0.1,0.1-0.1,0.2-0.1,0.3c-0.1,0.1-0.1,0.1-0.3,0.1c-0.1,0.1-0.2,0.1-0.3,0.1c-0.1,0-0.2,0-0.3-0.1c-0.1-0.1-0.2-0.1-0.3-0.1
			c-0.1-0.1-0.1-0.1-0.1-0.3C318.5,114.8,318.5,114.8,318.5,114.7z"/>
		<path class="st10" d="M325.3,106.4c0.3,0,0.7,0,1,0.1c0.3,0.1,0.6,0.2,0.8,0.4c0.2,0.2,0.4,0.4,0.6,0.6c0.1,0.3,0.3,0.6,0.3,1
			c0,0.3,0,0.6-0.1,0.8c-0.1,0.3-0.1,0.5-0.3,0.8c-0.2,0.3-0.3,0.4-0.4,0.8c-0.2,0.3-0.4,0.5-0.6,0.8l-2,2.4
			c0.1-0.1,0.3-0.1,0.4-0.2c0.1,0,0.3-0.1,0.4-0.1l2.7-0.3c0.1,0,0.2,0.1,0.3,0.1c0.1,0.1,0.1,0.1,0.1,0.3l0.1,0.6l-5.5,0.5v-0.3
			c0-0.1,0-0.1,0.1-0.3c0-0.1,0.1-0.1,0.1-0.2l2.3-2.9c0.2-0.2,0.4-0.5,0.5-0.7c0.2-0.2,0.3-0.4,0.4-0.7c0.1-0.2,0.2-0.4,0.3-0.6
			c0.1-0.2,0.1-0.4,0.1-0.7c0-0.3-0.1-0.4-0.2-0.6c-0.1-0.2-0.2-0.3-0.4-0.4c-0.1-0.1-0.3-0.2-0.4-0.2c-0.2-0.1-0.4,0-0.6,0
			s-0.4,0.1-0.6,0.1c-0.2,0.1-0.3,0.1-0.4,0.3c-0.1,0.1-0.3,0.3-0.3,0.4c-0.1,0.1-0.2,0.3-0.1,0.5c0,0.1-0.1,0.2-0.1,0.3
			c-0.1,0.1-0.1,0.1-0.3,0.1h-0.1h-0.1h-0.5c0-0.4,0.1-0.7,0.3-1c0.1-0.3,0.3-0.5,0.5-0.8c0.3-0.2,0.5-0.4,0.8-0.5
			C324.6,106.5,324.9,106.4,325.3,106.4z"/>
		<path class="st10" d="M335.1,109.7c0.1,0.7,0.1,1.3-0.1,1.8c-0.1,0.5-0.3,1-0.5,1.3c-0.3,0.3-0.5,0.6-0.9,0.8
			c-0.4,0.2-0.8,0.3-1.1,0.4c-0.4,0.1-0.8,0-1.1-0.1c-0.4-0.1-0.8-0.4-1-0.7c-0.3-0.3-0.6-0.7-0.8-1.2c-0.2-0.5-0.4-1.1-0.4-1.8
			c-0.1-0.7-0.1-1.3,0.1-1.8c0.1-0.5,0.3-1,0.5-1.4c0.2-0.4,0.5-0.6,0.9-0.8c0.4-0.3,0.8-0.3,1.1-0.4c0.4-0.1,0.8,0,1.1,0.1
			c0.4,0.1,0.8,0.4,1,0.7c0.3,0.3,0.6,0.7,0.8,1.3C334.9,108.4,335,109,335.1,109.7z M334,109.8c-0.1-0.6-0.2-1.1-0.3-1.6
			c-0.2-0.4-0.3-0.8-0.5-1c-0.2-0.3-0.4-0.4-0.7-0.5c-0.3-0.1-0.4-0.1-0.7-0.1c-0.3,0-0.5,0.1-0.7,0.3c-0.3,0.1-0.4,0.4-0.6,0.6
			c-0.2,0.3-0.3,0.6-0.4,1.1c-0.1,0.4-0.1,1,0,1.6c0.1,0.6,0.2,1.1,0.3,1.6c0.1,0.4,0.3,0.8,0.5,1c0.2,0.3,0.4,0.4,0.7,0.5
			c0.3,0.1,0.4,0.1,0.7,0.1c0.3,0,0.5-0.1,0.7-0.3c0.3-0.1,0.4-0.4,0.6-0.6c0.1-0.3,0.3-0.6,0.4-1.1
			C334.1,111,334.1,110.5,334,109.8z"/>
		<path class="st10" d="M341.7,109.1c0.1,0.7,0.1,1.3-0.1,1.8c-0.1,0.5-0.3,1-0.5,1.3c-0.3,0.3-0.5,0.6-0.9,0.8
			c-0.4,0.2-0.8,0.3-1.1,0.4c-0.4,0.1-0.8,0-1.1-0.1c-0.4-0.1-0.8-0.4-1-0.7c-0.3-0.3-0.6-0.7-0.8-1.2c-0.2-0.5-0.4-1.1-0.4-1.8
			c-0.1-0.7-0.1-1.3,0.1-1.8c0.1-0.5,0.3-1,0.5-1.4c0.2-0.4,0.5-0.6,0.9-0.8c0.4-0.3,0.8-0.3,1.1-0.4c0.4-0.1,0.8,0,1.1,0.1
			c0.4,0.1,0.8,0.4,1,0.7c0.3,0.3,0.6,0.7,0.8,1.3C341.5,107.8,341.7,108.4,341.7,109.1z M340.7,109.2c-0.1-0.6-0.2-1.1-0.3-1.6
			c-0.2-0.4-0.3-0.8-0.5-1c-0.2-0.3-0.4-0.4-0.7-0.5c-0.3-0.1-0.4-0.1-0.7-0.1c-0.3,0-0.5,0.1-0.7,0.3c-0.3,0.1-0.4,0.4-0.6,0.6
			c-0.2,0.3-0.3,0.6-0.4,1.1c-0.1,0.4-0.1,1,0,1.6c0.1,0.6,0.2,1.1,0.3,1.6c0.1,0.4,0.3,0.8,0.5,1c0.2,0.3,0.4,0.4,0.7,0.5
			s0.4,0.1,0.7,0.1c0.3,0,0.5-0.1,0.7-0.3c0.3-0.1,0.4-0.4,0.6-0.6c0.1-0.3,0.3-0.6,0.4-1.1C340.8,110.3,340.7,109.8,340.7,109.2z"
			/>
		<path class="st10" d="M345.6,107.8c0.3,0,0.6,0,1,0.1c0.3,0.1,0.6,0.2,0.8,0.4c0.2,0.2,0.4,0.4,0.6,0.7s0.3,0.6,0.3,1
			c0.1,0.4,0,0.7-0.1,1.1c-0.1,0.3-0.3,0.6-0.5,0.9c-0.3,0.2-0.5,0.5-0.8,0.6c-0.3,0.1-0.7,0.3-1.1,0.3c-0.4,0.1-0.8,0-1.1-0.1
			c-0.3-0.1-0.6-0.3-0.9-0.5c-0.3-0.3-0.5-0.4-0.6-0.8s-0.3-0.8-0.3-1.1c-0.1-0.4,0-0.8,0.1-1.1c0.1-0.4,0.4-0.9,0.6-1.4l1.8-3
			c0.1-0.1,0.1-0.1,0.3-0.2c0.1-0.1,0.2-0.1,0.3-0.1l0.9-0.1l-2.5,3.9c0.2-0.1,0.4-0.3,0.6-0.4C345.1,107.9,345.4,107.8,345.6,107.8
			z M343.8,110.5c0,0.3,0.1,0.5,0.2,0.7c0.1,0.2,0.3,0.4,0.4,0.6c0.1,0.1,0.3,0.3,0.6,0.3c0.2,0.1,0.4,0.1,0.7,0.1
			c0.3,0,0.5-0.1,0.8-0.2c0.2-0.1,0.4-0.3,0.5-0.4c0.2-0.2,0.3-0.3,0.3-0.6c0.1-0.3,0.1-0.4,0.1-0.7s-0.1-0.5-0.2-0.7
			c-0.1-0.2-0.3-0.4-0.4-0.5c-0.2-0.2-0.3-0.3-0.6-0.3c-0.3-0.1-0.4-0.1-0.7-0.1s-0.5,0.1-0.8,0.2c-0.2,0.1-0.4,0.3-0.5,0.4
			c-0.2,0.2-0.3,0.3-0.3,0.6C343.8,110,343.8,110.3,343.8,110.5z"/>
	</g>
</g>
</svg>
